<svg fill="none" height="242" viewBox="0 0 216 242" width="216" xmlns="http://www.w3.org/2000/svg" xmlns:xlink="http://www.w3.org/1999/xlink"><linearGradient id="a"><stop offset="0" stop-color="#fff" stop-opacity="0"/><stop offset="1" stop-color="#fff"/></linearGradient><linearGradient id="b" gradientUnits="userSpaceOnUse" x1="8.5" x2="8.5" xlink:href="#a" y1="36" y2="230"/><linearGradient id="c" gradientUnits="userSpaceOnUse" x1="20.5" x2="20.5" xlink:href="#a" y1="29" y2="230"/><linearGradient id="d" gradientUnits="userSpaceOnUse" x1="30.7394" x2="30.7394" xlink:href="#a" y1="18.2868" y2="250.287"/><linearGradient id="e" gradientUnits="userSpaceOnUse" x1="42.5217" x2="42.5217" xlink:href="#a" y1="29" y2="230"/><linearGradient id="f" gradientUnits="userSpaceOnUse" x1="51.5" x2="51.5" xlink:href="#a" y1="36" y2="230"/><linearGradient id="g" gradientUnits="userSpaceOnUse" x1="62.176" x2="62.176" xlink:href="#a" y1="97.6269" y2="230.287"/><linearGradient id="h" gradientUnits="userSpaceOnUse" x1="72.5" x2="72.5" xlink:href="#a" y1="111" y2="232"/><linearGradient id="i" gradientUnits="userSpaceOnUse" x1="83.5" x2="83.5" xlink:href="#a" y1="111" y2="232"/><linearGradient id="j" gradientUnits="userSpaceOnUse" x1="93.5" x2="93.5" xlink:href="#a" y1="96" y2="232"/><linearGradient id="k" gradientUnits="userSpaceOnUse" x1="104.5" x2="104.5" xlink:href="#a" y1="96" y2="232"/><linearGradient id="l" gradientUnits="userSpaceOnUse" x1="114.5" x2="114.5" xlink:href="#a" y1="96" y2="232"/><linearGradient id="m" gradientUnits="userSpaceOnUse" x1="125.5" x2="125.5" xlink:href="#a" y1="96" y2="232"/><linearGradient id="n" gradientUnits="userSpaceOnUse" x1="135.5" x2="135.5" xlink:href="#a" y1="33" y2="232"/><linearGradient id="o" gradientUnits="userSpaceOnUse" x1="146.5" x2="146.5" xlink:href="#a" y1="33" y2="232"/><linearGradient id="p" gradientUnits="userSpaceOnUse" x1="156.5" x2="156.5" xlink:href="#a" y1="33" y2="232"/><linearGradient id="q" gradientUnits="userSpaceOnUse" x1="166.5" x2="166.5" xlink:href="#a" y1="33" y2="232"/><linearGradient id="r" gradientUnits="userSpaceOnUse" x1="177.5" x2="177.5" xlink:href="#a" y1="33" y2="232"/><linearGradient id="s" gradientUnits="userSpaceOnUse" x1="187.5" x2="187.5" xlink:href="#a" y1="77" y2="232"/><linearGradient id="t" gradientUnits="userSpaceOnUse" x1="198.5" x2="198.5" xlink:href="#a" y1="77" y2="232"/><linearGradient id="u" gradientUnits="userSpaceOnUse" x1="208.5" x2="208.5" xlink:href="#a" y1="77" y2="232"/><g stroke-width="2"><path d="m9 36v194" stroke="#97b0c4"/><path d="m9 36v194" stroke="url(#b)"/><path d="m20 29v201" stroke="#97b0c4"/><path d="m20 29v201" stroke="url(#c)"/><path d="m30.2394 18.2868v232.0002" stroke="#97b0c4"/><path d="m30.2394 18.2868v232.0002" stroke="url(#d)"/><path d="m41 29v201" stroke="#97b0c4"/><path d="m41 29v201" stroke="url(#e)"/><path d="m51 36v194" stroke="#97b0c4"/><path d="m51 36v194" stroke="url(#f)"/><path d="m61.676 97.6269v132.6601" stroke="#97b0c4"/><path d="m61.676 97.6269v132.6601" stroke="url(#g)"/><path d="m72 111v121" stroke="#97b0c4"/><path d="m72 111v121" stroke="url(#h)"/><path d="m83 111v121" stroke="#97b0c4"/><path d="m83 111v121" stroke="url(#i)"/><path d="m93 96v136" stroke="#97b0c4"/><path d="m93 96v136" stroke="url(#j)"/><path d="m104 96v136" stroke="#97b0c4"/><path d="m104 96v136" stroke="url(#k)"/><path d="m114 96v136" stroke="#97b0c4"/><path d="m114 96v136" stroke="url(#l)"/><path d="m125 96v136" stroke="#97b0c4"/><path d="m125 96v136" stroke="url(#m)"/><path d="m135 33v199" stroke="#97b0c4"/><path d="m135 33v199" stroke="url(#n)"/><path d="m146 33v199" stroke="#97b0c4"/><path d="m146 33v199" stroke="url(#o)"/><path d="m156 33v199" stroke="#97b0c4"/><path d="m156 33v199" stroke="url(#p)"/><path d="m166 33v199" stroke="#97b0c4"/><path d="m166 33v199" stroke="url(#q)"/><path d="m177 33v199" stroke="#97b0c4"/><path d="m177 33v199" stroke="url(#r)"/><path d="m187 77v155" stroke="#97b0c4"/><path d="m187 77v155" stroke="url(#s)"/><path d="m198 77v155" stroke="#97b0c4"/><path d="m198 77v155" stroke="url(#t)"/><path d="m208 77v155" stroke="#97b0c4"/><path d="m208 77v155" stroke="url(#u)"/></g></svg>