<svg width="78" height="68" viewBox="0 0 78 68" fill="none" xmlns="http://www.w3.org/2000/svg">
<path d="M34.875 51.875C34.875 52.969 35.3096 54.0182 36.0832 54.7918C36.8568 55.5654 37.906 56 39 56C40.094 56 41.1432 55.5654 41.9168 54.7918C42.6904 54.0182 43.125 52.969 43.125 51.875C43.125 50.781 42.6904 49.7318 41.9168 48.9582C41.1432 48.1846 40.094 47.75 39 47.75C37.906 47.75 36.8568 48.1846 36.0832 48.9582C35.3096 49.7318 34.875 50.781 34.875 51.875ZM36.25 25.75V41.5625C36.25 41.9406 36.5594 42.25 36.9375 42.25H41.0625C41.4406 42.25 41.75 41.9406 41.75 41.5625V25.75C41.75 25.3719 41.4406 25.0625 41.0625 25.0625H36.9375C36.5594 25.0625 36.25 25.3719 36.25 25.75ZM77.1305 63.5625L41.3805 1.6875C40.8476 0.767969 39.9281 0.3125 39 0.3125C38.0719 0.3125 37.1437 0.767969 36.6195 1.6875L0.869512 63.5625C-0.18752 65.4016 1.13592 67.6875 3.24998 67.6875H74.75C76.8641 67.6875 78.1875 65.4016 77.1305 63.5625ZM9.79842 61.1648L39 10.6164L68.2016 61.1648H9.79842Z" fill="currentColor"/>
</svg>
