<svg width="16" height="16" viewBox="0 0 16 16" fill="none" xmlns="http://www.w3.org/2000/svg">
  <path d="M14 14.306C14 14.4901 13.9298 14.6666 13.8047 14.7967C13.6797 14.9269 13.5101 15 13.3333 15H2.66667C2.48986 15 2.32029 14.9269 2.19526 14.7967C2.07024 14.6666 2 14.4901 2 14.306V7.01236C1.99993 6.90661 2.02308 6.80224 2.06768 6.70722C2.11228 6.6122 2.17715 6.52905 2.25733 6.46412L7.59067 2.14622C7.7077 2.05145 7.85173 2 8 2C8.14827 2 8.2923 2.05145 8.40933 2.14622L13.7427 6.46412C13.8229 6.52905 13.8877 6.6122 13.9323 6.70722C13.9769 6.80224 14.0001 6.90661 14 7.01236V14.306ZM12.6667 13.6121V7.35102L8 3.57303L3.33333 7.35102V13.6121H12.6667ZM4.66667 10.8362H11.3333V12.2241H4.66667V10.8362Z" fill="currentColor" />
</svg>
