<svg width="16" height="16" viewBox="0 0 16 16" fill="none" xmlns="http://www.w3.org/2000/svg">
  <path d="M3 11.9V3.8C3 3.32261 3.17559 2.86477 3.48816 2.52721C3.80072 2.18964 4.22464 2 4.66667 2H12.4444C12.5918 2 12.7331 2.06321 12.8373 2.17574C12.9415 2.28826 13 2.44087 13 2.6V13.4C13 13.5591 12.9415 13.7117 12.8373 13.8243C12.7331 13.9368 12.5918 14 12.4444 14H4.94444C4.42875 14 3.93417 13.7788 3.56951 13.3849C3.20486 12.9911 3 12.457 3 11.9ZM11.8889 12.8V11H4.94444C4.72343 11 4.51147 11.0948 4.35519 11.2636C4.19891 11.4324 4.11111 11.6613 4.11111 11.9C4.11111 12.1387 4.19891 12.3676 4.35519 12.5364C4.51147 12.7052 4.72343 12.8 4.94444 12.8H11.8889ZM6.88889 3.2H4.66667C4.51932 3.2 4.37802 3.26321 4.27383 3.37574C4.16964 3.48826 4.11111 3.64087 4.11111 3.8V10.0022C4.37149 9.86866 4.6562 9.79958 4.94444 9.8H11.8889V3.2H10.7778V8L8.83333 6.8L6.88889 8V3.2Z" fill="currentColor" />
</svg>
