<svg width="16" height="16" viewBox="0 0 16 16" fill="none" xmlns="http://www.w3.org/2000/svg">
<path fill-rule="evenodd" clip-rule="evenodd" d="M2 11.3333V3.33333C2 2.598 2.598 2 3.33333 2H12.6667C13.402 2 14 2.598 14 3.33333V11.3333C14 12.0687 13.402 12.6667 12.6667 12.6667H10.276L8 14.9427L5.724 12.6667H3.33333C2.598 12.6667 2 12.0687 2 11.3333ZM12.6667 3.33333H3.33333V11.3333H6.276L8 13.0573L9.724 11.3333H12.6667V3.33333ZM10.5287 4.52866L11.4714 5.47132L7.33339 9.60932L4.86206 7.13799L5.80473 6.19532L7.33339 7.72399L10.5287 4.52866Z" fill="currentColor"/>
</svg>
