<svg width="16" height="16" viewBox="0 0 16 16" fill="none" xmlns="http://www.w3.org/2000/svg">
  <path d="M14.1126 8.78402C14.1455 8.52802 14.1701 8.27202 14.1701 8.00002C14.1701 7.72802 14.1455 7.47202 14.1126 7.21602L15.8479 5.89602C16.0042 5.77602 16.0453 5.56002 15.9466 5.38402L14.3017 2.61603C14.2532 2.53349 14.1761 2.47045 14.0842 2.4382C13.9923 2.40594 13.8915 2.40659 13.8 2.44003L11.7522 3.24003C11.3245 2.92003 10.8639 2.65603 10.3622 2.45603L10.0497 0.336037C10.0361 0.24191 9.98765 0.155845 9.91345 0.093986C9.83926 0.0321264 9.74441 -0.00127818 9.6467 3.74311e-05H6.35693C6.15132 3.74311e-05 5.97861 0.144037 5.95393 0.336037L5.64141 2.45603C5.13972 2.65603 4.67915 2.92803 4.25148 3.24003L2.2036 2.44003C2.15591 2.4243 2.10591 2.41619 2.05556 2.41603C1.91574 2.41603 1.77593 2.48803 1.70191 2.61603L0.0570212 5.38402C-0.0498963 5.56002 -0.000549644 5.77602 0.155714 5.89602L1.89107 7.21602C1.85817 7.47202 1.8335 7.73602 1.8335 8.00002C1.8335 8.26402 1.85817 8.52802 1.89107 8.78402L0.155714 10.104C-0.000549644 10.224 -0.0416719 10.44 0.0570212 10.616L1.70191 13.384C1.75039 13.4665 1.82751 13.5296 1.91944 13.5618C2.01138 13.5941 2.11211 13.5934 2.2036 13.56L4.25148 12.76C4.67915 13.08 5.13972 13.344 5.64141 13.544L5.95393 15.664C5.97861 15.856 6.15132 16 6.35693 16H9.6467C9.85231 16 10.025 15.856 10.0497 15.664L10.3622 13.544C10.8639 13.344 11.3245 13.072 11.7522 12.76L13.8 13.56C13.8494 13.576 13.8987 13.584 13.9481 13.584C14.0879 13.584 14.2277 13.512 14.3017 13.384L15.9466 10.616C16.0453 10.44 16.0042 10.224 15.8479 10.104L14.1126 8.78402ZM12.4841 7.41602C12.517 7.66402 12.5253 7.83202 12.5253 8.00002C12.5253 8.16802 12.5088 8.34402 12.4841 8.58402L12.369 9.48801L13.101 10.048L13.6325 10.4501C13.8356 10.6038 13.8907 10.8856 13.7605 11.1045L13.6302 11.3236C13.5052 11.5338 13.2464 11.6227 13.0186 11.5337L12.369 11.28L11.5136 10.944L10.7734 11.488C10.4198 11.744 10.0826 11.936 9.74539 12.072L8.87361 12.416L8.74201 13.32L8.64221 13.9753C8.60501 14.2195 8.39498 14.4 8.14791 14.4H7.85897C7.61048 14.4 7.3997 14.2175 7.36412 13.9716L7.26984 13.32L7.13825 12.416L6.26646 12.072C5.91281 11.928 5.58384 11.744 5.25486 11.504L4.50644 10.944L3.63465 11.288L2.98507 11.5417C2.75723 11.6307 2.49845 11.5418 2.37341 11.3316L2.24308 11.1125C2.1129 10.8936 2.16805 10.6118 2.37115 10.4581L2.90267 10.056L3.63465 9.49601L3.5195 8.59202C3.49483 8.34402 3.47838 8.16002 3.47838 8.00002C3.47838 7.84002 3.49483 7.65602 3.5195 7.41602L3.63465 6.51202L2.90267 5.95202L2.37115 5.5499C2.16805 5.39624 2.1129 5.11447 2.24308 4.89557L2.37341 4.67644C2.49845 4.4662 2.75723 4.37729 2.98507 4.46629L3.63465 4.72003L4.48999 5.05603L5.23018 4.51203C5.58383 4.25603 5.92104 4.06403 6.25824 3.92803L7.13003 3.58403L7.26162 2.68003L7.36142 2.02475C7.39862 1.7805 7.60865 1.60003 7.85572 1.60003H8.13644C8.38492 1.60003 8.5957 1.78251 8.63129 2.02843L8.72557 2.68003L8.85716 3.58403L9.72895 3.92803C10.0826 4.07203 10.4116 4.25603 10.7406 4.49603L11.489 5.05603L12.3608 4.71203L13.0103 4.45829C13.2382 4.36929 13.497 4.4582 13.622 4.66844L13.7547 4.8915C13.8839 5.10872 13.8306 5.3882 13.6306 5.54273L13.101 5.95202L12.369 6.51202L12.4841 7.41602ZM8.00182 4.80003C6.18422 4.80003 4.71205 6.23202 4.71205 8.00002C4.71205 9.76801 6.18422 11.2 8.00182 11.2C9.81942 11.2 11.2916 9.76801 11.2916 8.00002C11.2916 6.23202 9.81942 4.80003 8.00182 4.80003ZM8.00182 9.60001C7.09713 9.60001 6.35693 8.88002 6.35693 8.00002C6.35693 7.12002 7.09713 6.40002 8.00182 6.40002C8.9065 6.40002 9.6467 7.12002 9.6467 8.00002C9.6467 8.88002 8.9065 9.60001 8.00182 9.60001Z" fill="currentColor" />
</svg>
