<svg width="16" height="16" viewBox="0 0 16 16" fill="none" xmlns="http://www.w3.org/2000/svg">
  <path fill-rule="evenodd" clip-rule="evenodd" d="M6.3999 2C5.92251 2 5.46468 2.18964 5.12711 2.52721C4.78955 2.86477 4.5999 3.32261 4.5999 3.8V4.4H2.79994C1.80583 4.4 0.999939 5.20588 0.999939 6.2V12.2C0.999939 13.1941 1.80583 14 2.79994 14H5.19882C5.19918 14 5.19954 14 5.1999 14C5.20026 14 5.20062 14 5.20099 14H9.99882C9.99918 14 9.99954 14 9.9999 14C10.0003 14 10.0006 14 10.001 14H12.3999C13.394 14 14.1999 13.1941 14.1999 12.2V6.2C14.1999 5.20588 13.394 4.4 12.3999 4.4H10.5999V3.8C10.5999 3.32261 10.4103 2.86477 10.0727 2.52721C9.73513 2.18964 9.27729 2 8.7999 2H6.3999ZM9.3999 4.4V3.8C9.3999 3.64087 9.33669 3.48826 9.22416 3.37573C9.11164 3.26321 8.95903 3.2 8.7999 3.2H6.3999C6.24077 3.2 6.08816 3.26321 5.97564 3.37573C5.86312 3.48826 5.7999 3.64087 5.7999 3.8V4.4H9.3999ZM5.7999 5.6H9.3999V12.8H5.7999V5.6ZM4.5999 5.6H2.79994C2.46857 5.6 2.19994 5.86863 2.19994 6.2V12.2C2.19994 12.5314 2.46857 12.8 2.79994 12.8H4.5999V5.6ZM10.5999 12.8V5.6H12.3999C12.7313 5.6 12.9999 5.86863 12.9999 6.2V12.2C12.9999 12.5314 12.7313 12.8 12.3999 12.8H10.5999Z" fill="currentColor" />
</svg>
