<?xml version="1.0" standalone="no"?>
<!DOCTYPE svg PUBLIC "-//W3C//DTD SVG 20010904//EN"
 "http://www.w3.org/TR/2001/REC-SVG-20010904/DTD/svg10.dtd">
<svg version="1.0" xmlns="http://www.w3.org/2000/svg"
 width="825.000000pt" height="825.000000pt" viewBox="0 0 825.000000 825.000000"
 preserveAspectRatio="xMidYMid meet">
<metadata>
Created by potrace 1.14, written by Peter Selinger 2001-2017
</metadata>
<g transform="translate(0.000000,825.000000) scale(0.100000,-0.100000)"
fill="#000000" stroke="none">
<path d="M1540 7772 c0 -1 30 -123 66 -270 77 -313 74 -300 80 -332 3 -14 19
-79 35 -145 17 -66 32 -127 34 -135 12 -56 44 -184 109 -450 41 -168 86 -354
100 -415 14 -60 30 -126 36 -145 14 -51 71 -281 75 -305 3 -20 102 -425 150
-615 14 -58 29 -116 31 -130 3 -14 10 -43 16 -65 5 -22 12 -47 13 -55 2 -8 30
-125 63 -260 33 -135 70 -285 82 -335 11 -49 27 -112 35 -140 11 -40 73 -300
81 -340 1 -5 12 -48 24 -95 12 -47 23 -92 25 -100 2 -8 19 -80 39 -160 19 -80
58 -239 86 -355 28 -115 64 -264 81 -331 16 -66 32 -129 34 -140 2 -10 12 -48
20 -84 9 -36 18 -72 20 -80 14 -58 73 -305 125 -515 34 -137 63 -257 65 -265
2 -8 22 -91 45 -185 78 -319 132 -540 136 -560 2 -11 23 -99 47 -195 l43 -175
34 1 c19 1 62 4 95 8 354 40 844 41 1150 2 22 -2 67 -7 100 -11 32 -4 62 -8
65 -10 6 -4 23 53 34 110 2 11 25 102 50 202 25 99 47 192 50 205 2 12 32 136
65 273 34 138 82 333 106 435 25 102 81 334 125 515 44 182 105 434 136 560
31 127 71 292 90 368 18 75 36 147 38 160 9 40 14 61 31 127 9 36 18 72 20 80
2 8 21 89 43 180 23 91 46 188 52 215 7 28 13 57 15 65 2 8 33 134 69 280 83
339 137 561 141 580 2 8 20 83 40 165 20 83 56 233 81 335 99 409 159 655 210
863 30 119 56 227 58 240 2 12 12 51 21 87 9 36 19 76 22 90 2 14 10 46 18 73
8 26 12 47 10 47 -3 0 0 11 5 25 5 14 12 36 14 48 3 12 23 99 46 192 23 94 43
177 45 185 4 21 83 349 92 380 3 14 7 32 9 40 2 8 17 69 34 135 16 66 30 122
30 125 0 3 -326 5 -724 5 l-724 0 -57 -235 c-58 -237 -112 -458 -121 -495 -3
-11 -7 -29 -9 -40 -2 -11 -27 -112 -55 -225 -27 -113 -64 -263 -81 -335 -17
-71 -33 -137 -35 -145 -12 -50 -26 -107 -29 -120 -4 -17 -77 -320 -101 -415
-8 -33 -16 -69 -19 -80 -2 -11 -18 -76 -35 -145 -17 -69 -33 -132 -35 -140 -1
-8 -20 -82 -40 -165 -20 -82 -38 -160 -41 -172 -4 -20 -56 -234 -90 -368 -8
-33 -17 -67 -19 -75 -56 -240 -154 -643 -241 -999 -15 -57 -27 -108 -28 -115
-26 -122 -30 -136 -38 -115 -7 19 -82 316 -93 372 -2 10 -6 26 -9 35 -3 9 -7
28 -10 42 -3 14 -19 81 -36 150 -32 128 -46 188 -55 227 -5 21 -114 467 -176
721 -17 67 -32 130 -34 140 -2 9 -16 64 -30 122 -15 58 -29 115 -31 127 -2 12
-22 93 -43 180 -121 492 -183 745 -186 760 -2 10 -15 65 -30 123 -14 58 -28
114 -30 126 -3 11 -38 158 -79 325 -41 167 -84 345 -96 394 -72 300 -130 528
-135 534 -6 6 -1445 9 -1445 3z"/>
</g>
</svg>
