<?xml version="1.0" standalone="no"?>
<!DOCTYPE svg PUBLIC "-//W3C//DTD SVG 20010904//EN"
 "http://www.w3.org/TR/2001/REC-SVG-20010904/DTD/svg10.dtd">
<svg version="1.0" xmlns="http://www.w3.org/2000/svg"
 width="70.000000pt" height="70.000000pt" viewBox="0 0 70.000000 70.000000"
 preserveAspectRatio="xMidYMid meet">
<metadata>
Created by potrace 1.11, written by Peter Selinger 2001-2013
</metadata>
<g transform="translate(0.000000,70.000000) scale(0.100000,-0.100000)"
fill="#000000" stroke="none">
<path d="M190 638 c0 -27 88 -579 93 -584 3 -3 36 -2 73 3 l69 8 41 260 c23
143 44 275 48 293 l8 32 -49 0 -49 0 -28 -192 c-16 -106 -31 -206 -34 -223 -5
-27 -23 71 -66 368 l-7 47 -50 0 c-32 0 -49 -4 -49 -12z"/>
</g>
</svg>
