<svg width="164" height="46" viewBox="0 0 164 46" fill="none" xmlns="http://www.w3.org/2000/svg">
  <path d="M31.66 13.5V45H25.42V40.14C24.46 41.46 23.04 42.7 21.16 43.86C19.28 45.02 17.1 45.6 14.62 45.6C11.98 45.6 9.56 44.9 7.36 43.5C5.2 42.1 3.48 40.16 2.2 37.68C0.92 35.2 0.28 32.36 0.28 29.16C0.28 25.96 0.94 23.14 2.26 20.7C3.58 18.22 5.4 16.3 7.72 14.94C10.04 13.54 12.68 12.84 15.64 12.84C17.84 12.84 19.76 13.32 21.4 14.28C23.08 15.24 24.42 16.36 25.42 17.64V13.5H31.66ZM16.06 39.9C17.98 39.9 19.66 39.44 21.1 38.52C22.54 37.56 23.66 36.28 24.46 34.68C25.26 33.04 25.66 31.2 25.66 29.16C25.66 27.16 25.26 25.36 24.46 23.76C23.66 22.16 22.54 20.9 21.1 19.98C19.66 19.02 17.98 18.54 16.06 18.54C14.22 18.54 12.58 19 11.14 19.92C9.7 20.84 8.58 22.1 7.78 23.7C6.98 25.3 6.58 27.12 6.58 29.16C6.58 31.2 6.98 33.04 7.78 34.68C8.58 36.28 9.7 37.56 11.14 38.52C12.58 39.44 14.22 39.9 16.06 39.9ZM103.032 40.86H102.972C101.692 42.1 99.9323 43.2 97.6923 44.16C95.4523 45.12 93.1123 45.6 90.6723 45.6C87.3923 45.6 84.4923 44.92 81.9723 43.56C79.4923 42.16 77.5523 40.26 76.1523 37.86C74.7523 35.42 74.0523 32.66 74.0523 29.58C74.0523 26.06 74.7923 23.06 76.2723 20.58C77.7523 18.06 79.7123 16.14 82.1523 14.82C84.5923 13.46 87.2523 12.78 90.1323 12.78C92.7723 12.78 95.1723 13.44 97.3323 14.76C99.4923 16.04 101.212 17.82 102.492 20.1C103.772 22.38 104.412 25.04 104.412 28.08L104.352 30.72H80.2323C80.5923 33.56 81.7523 35.82 83.7123 37.5C85.7123 39.14 88.2323 39.96 91.2723 39.96C93.4723 39.96 95.2523 39.56 96.6123 38.76C97.9723 37.92 99.0923 37.12 99.9723 36.36L103.032 40.86ZM90.1323 18.48C87.7723 18.48 85.7123 19.04 83.9523 20.16C82.1923 21.24 81.0323 23.12 80.4723 25.8H98.1123V25.38C97.9923 24.02 97.5323 22.82 96.7323 21.78C95.9723 20.74 95.0123 19.94 93.8523 19.38C92.6923 18.78 91.4523 18.48 90.1323 18.48ZM128.769 20.16C128.369 19.96 127.869 19.8 127.269 19.68C126.709 19.52 126.109 19.44 125.469 19.44C124.189 19.44 122.929 19.78 121.689 20.46C120.449 21.1 119.409 22.04 118.569 23.28C117.769 24.48 117.369 25.92 117.369 27.6V45H111.129V13.5H117.369V19.44C118.249 17.52 119.569 15.94 121.329 14.7C123.129 13.46 125.009 12.84 126.969 12.84C128.449 12.84 129.589 13.04 130.389 13.44L128.769 20.16ZM163.32 13.5V45H157.08V40.14C156.12 41.46 154.7 42.7 152.82 43.86C150.94 45.02 148.76 45.6 146.28 45.6C143.64 45.6 141.22 44.9 139.02 43.5C136.86 42.1 135.14 40.16 133.86 37.68C132.58 35.2 131.94 32.36 131.94 29.16C131.94 25.96 132.6 23.14 133.92 20.7C135.24 18.22 137.06 16.3 139.38 14.94C141.7 13.54 144.34 12.84 147.3 12.84C149.5 12.84 151.42 13.32 153.06 14.28C154.74 15.24 156.08 16.36 157.08 17.64V13.5H163.32ZM147.72 39.9C149.64 39.9 151.32 39.44 152.76 38.52C154.2 37.56 155.32 36.28 156.12 34.68C156.92 33.04 157.32 31.2 157.32 29.16C157.32 27.16 156.92 25.36 156.12 23.76C155.32 22.16 154.2 20.9 152.76 19.98C151.32 19.02 149.64 18.54 147.72 18.54C145.88 18.54 144.24 19 142.8 19.92C141.36 20.84 140.24 22.1 139.44 23.7C138.64 25.3 138.24 27.12 138.24 29.16C138.24 31.2 138.64 33.04 139.44 34.68C140.24 36.28 141.36 37.56 142.8 38.52C144.24 39.44 145.88 39.9 147.72 39.9Z" fill="white" />
  <path d="M56.7888 12.84C59.6288 12.84 61.8288 13.42 63.3888 14.58C64.9488 15.74 66.0288 17.3 66.6288 19.26C67.2688 21.22 67.5888 23.4 67.5888 25.8V45H61.4088V26.22C61.4088 24.7 61.2088 23.34 60.8088 22.14C60.4088 20.94 59.7288 20 58.7688 19.32C57.8088 18.64 56.4688 18.36 54.7488 18.48C53.1488 18.48 51.7288 18.82 50.4888 19.5C49.2488 20.18 48.2688 21.08 47.5488 22.2C46.8288 23.32 46.4688 24.56 46.4688 25.92V45H40.2888V0.599999H46.4688V18.48C47.4288 17 48.8288 15.7 50.6688 14.58C52.5088 13.42 54.5488 12.84 56.7888 12.84Z" fill="#48CFAE" />
</svg>