<?xml version="1.0" encoding="utf-8"?>
<!-- Generator: Adobe Illustrator 23.0.3, SVG Export Plug-In . SVG Version: 6.00 Build 0)  -->
<svg version="1.1" id="Calque_1" xmlns="http://www.w3.org/2000/svg" xmlns:xlink="http://www.w3.org/1999/xlink" x="0px" y="0px"
	 viewBox="0 0 391.5 130.4" style="enable-background:new 0 0 391.5 130.4;" xml:space="preserve">
<style type="text/css">
	.st0{fill:#D01D19;}
	.st1{fill:url(#SVGID_1_);}
	.st2{fill:url(#SVGID_2_);}
	.st3{fill:#009EE0;}
</style>
<g>
	<g>
		<ellipse class="st0" cx="350.8" cy="53" rx="1.6" ry="1.6"/>
		<ellipse class="st0" cx="360.4" cy="70.7" rx="1.6" ry="1.6"/>
		<ellipse class="st0" cx="359.3" cy="85.6" rx="1.6" ry="1.6"/>
		<ellipse class="st0" cx="351.1" cy="100.2" rx="1.6" ry="1.6"/>
	</g>
	<g>
		<ellipse class="st0" cx="332.9" cy="43.5" rx="1.6" ry="1.6"/>
		<ellipse class="st0" cx="318" cy="44.7" rx="1.6" ry="1.6"/>
		<ellipse class="st0" cx="303.6" cy="53" rx="1.6" ry="1.6"/>
	</g>
	
		<linearGradient id="SVGID_1_" gradientUnits="userSpaceOnUse" x1="292.6674" y1="732.8442" x2="370.2802" y2="732.8442" gradientTransform="matrix(1 0 0 1 0 -660.5881)">
		<stop  offset="0.4257" style="stop-color:#70C6D4"/>
		<stop  offset="0.4882" style="stop-color:#57C0D6"/>
		<stop  offset="0.7237" style="stop-color:#00ADDC"/>
		<stop  offset="0.9015" style="stop-color:#00A2DF"/>
		<stop  offset="1" style="stop-color:#009EE0"/>
	</linearGradient>
	<path class="st1" d="M352.9,111.1c-0.4,0-0.8-0.1-1.1-0.5c-0.4-0.5-0.4-1.3,0.3-1.9c1.3-1.1,2.7-2.3,3.8-3.3
		c7.7-7.7,11.8-17.9,11.8-28.8s-4.2-21.1-11.9-28.6S338,36.2,327.2,36.2h-0.1c-10.9,0-21.1,4.2-28.6,11.9c-1.2,1.2-2.3,2.4-3.3,3.8
		c-0.4,0.5-1.3,0.7-1.9,0.3c-0.5-0.4-0.7-1.3-0.3-1.9c1.2-1.5,2.3-2.8,3.6-4.1c16.8-17,44.1-17,61.1-0.3c8.2,8.1,12.7,19,12.7,30.5
		S366,98.8,357.8,107c-1.2,1.2-2.7,2.4-4.1,3.6C353.6,111,353.3,111.1,352.9,111.1z"/>
	<path class="st0" d="M322.8,76.5c4.4-4.1,8.6-8.1,12.7-12.1c1.5-1.3,2.9-2.7,4.4-4.1c1.2-1.2,2.5-1.7,3.8-0.7s1.1,2.4,0.1,3.7
		c-4,6-7.8,11.9-11.8,17.8c-0.7,0.9-1.3,2-2.1,2.7c-2.3,1.6-5,1.2-6.9-0.9C321.4,81.1,321.4,78.3,322.8,76.5z"/>
	
		<linearGradient id="SVGID_2_" gradientUnits="userSpaceOnUse" x1="300.1328" y1="643.8677" x2="377.4627" y2="765.386" gradientTransform="matrix(1 0 0 1 0 -660.5881)">
		<stop  offset="0.4257" style="stop-color:#70C6D4"/>
		<stop  offset="0.4882" style="stop-color:#57C0D6"/>
		<stop  offset="0.7237" style="stop-color:#00ADDC"/>
		<stop  offset="0.9015" style="stop-color:#00A2DF"/>
		<stop  offset="1" style="stop-color:#009EE0"/>
	</linearGradient>
	<path class="st2" d="M391.5,69.2l-2.3-12.6c-0.1-1.1-1.2-1.7-2.3-1.6c-1.1,0.1-1.7,1.2-1.6,2.3l0.8,4.2l-7.2,1.2
		c-2-7.6-5.7-14.8-11.1-21.1c4,1.6,8.7,0.8,11.9-2.4c4.2-4.2,4.2-11.1,0-15.4c-4.2-4.2-11.1-4.2-15.4,0c-3.2,3.2-4,8-2.3,11.9
		c-5.8-4.9-12.5-8.6-19.8-10.6l2-6.9l5.4,1.3c0.1,0,0.3,0,0.4,0c0.9,0,1.7-0.7,1.9-1.5c0.3-1.1-0.4-2.1-1.5-2.4l-14.2-3.3
		c-1.1-0.3-2.1,0.4-2.4,1.5s0.4,2.1,1.5,2.4l4.8,1.2l-2,6.9c-3.6-0.8-7.4-1.2-11.1-1.2c-0.1,0-0.1,0-0.3,0
		c-14.3,0-27.8,5.7-37.9,15.9c-1.2,1.3-2.5,2.7-3.6,4c-0.4,0.5-0.4,1.3,0.1,1.9c0.5,0.4,1.3,0.4,1.9-0.1c1.1-1.3,2.3-2.7,3.4-3.8
		c9.5-9.7,22.4-15,36.1-15.1h0.1c4.1,0,8.1,0.5,11.9,1.5c0.1,0.1,0.3,0.1,0.4,0.1s0.4,0.1,0.5,0.1l0,0c8.6,2.3,16.6,6.8,23.1,13.1
		c20,19.9,20.1,52.2,0.3,72.2c-1.2,1.2-2.5,2.4-3.8,3.4c-0.5,0.4-0.7,1.3-0.1,1.9c0.3,0.3,0.7,0.5,1.1,0.5c0.3,0,0.5-0.1,0.8-0.3
		c1.3-1.2,2.8-2.4,4-3.6c13-13,17.8-31.2,14.6-48l7-1.2l0.8,4.5c0.1,0.9,1.1,1.6,2,1.6c0.1,0,0.3,0,0.4,0
		C391,71.3,391.6,70.3,391.5,69.2z"/>
	<g>
		<path class="st3" d="M39.5,48.1c-1.5,1.6-3.3,2.8-5.4,3.7s-4.2,1.3-6.5,1.3c-4,0-7.2-1.2-9.7-3.6c-2.5-2.4-3.7-5.4-3.7-9
			c0-4,1.2-7.2,3.7-9.5c2.5-2.4,5.7-3.6,9.7-3.6c2.3,0,4.4,0.4,6.5,1.3s3.8,2.1,5.4,3.7V18.3c-1.6-0.9-3.4-1.7-5.7-2.3
			c-2.3-0.5-4.8-0.7-7.6-0.7c-7.3,0-13.4,2.4-18.2,7.2S0.7,33.2,0.7,40.4S3.1,53.5,8,58.3c4.8,4.8,10.9,7,18.2,7
			c2.8,0,5.2-0.3,7.4-0.8c2.3-0.5,4.1-1.2,5.7-2.3V48.1H39.5z"/>
		<path class="st3" d="M59.8,45.6l11.4,18.6h15.2L72.8,45.1c3.6-0.8,6.4-2.3,8.2-4.6c1.9-2.4,2.8-5.3,2.8-9c0-5.3-1.6-9.1-4.9-11.5
			s-9-3.6-17.1-3.6h-15v47.9h13C59.8,64.3,59.8,45.6,59.8,45.6z M59.8,26.5h2.5c2.9,0,5,0.5,6.2,1.6s1.9,2.7,1.9,5
			c0,2.1-0.7,3.6-2,4.6c-1.3,0.9-3.4,1.5-6.4,1.5h-2.4V26.5H59.8z"/>
		<polygon class="st3" points="120.3,53.7 104.7,53.7 104.7,45.1 119.6,45.1 119.6,34.9 104.7,34.9 104.7,26.9 120.3,26.9 
			120.3,16.3 91.8,16.3 91.8,64.2 120.3,64.2 		"/>
		<polygon class="st3" points="111.2,8.1 99.8,0 95.6,6.2 108.2,12.5 		"/>
		<path class="st3" d="M151.3,15.4c-7.3,0-13.4,2.4-18.2,7.2s-7.3,10.7-7.3,17.9s2.4,13.1,7.3,17.9c4.8,4.8,10.9,7,18.2,7
			c2.8,0,5.2-0.3,7.4-0.8c2.3-0.5,4.1-1.2,5.7-2.3V48.1c-1.5,1.6-3.3,2.8-5.4,3.7c-2.1,0.9-4.2,1.3-6.5,1.3c-4,0-7.2-1.2-9.7-3.6
			c-2.5-2.4-3.7-5.4-3.7-9c0-4,1.2-7.2,3.7-9.5c2.5-2.4,5.7-3.6,9.7-3.6c2.3,0,4.4,0.4,6.5,1.3s3.8,2.1,5.4,3.7V18.3
			c-1.6-0.9-3.4-1.7-5.7-2.3C156.6,15.5,154.1,15.4,151.3,15.4z"/>
		<polygon class="st3" points="202.7,34.9 184.8,34.9 184.8,16.3 171.8,16.3 171.8,64.2 184.8,64.2 184.8,45.1 202.7,45.1 
			202.7,64.2 215.7,64.2 215.7,16.3 202.7,16.3 		"/>
		<polygon class="st3" points="225,64.2 253.5,64.2 253.5,53.7 238,53.7 238,45.1 252.8,45.1 252.8,34.9 238,34.9 238,26.9 
			253.5,26.9 253.5,16.3 225,16.3 		"/>
		<path class="st3" d="M292.3,39.8c-2.3-2.4-5.8-4.1-10.9-5.4c-0.1,0-0.4-0.1-0.8-0.1c-4.9-1.2-7.3-2.9-7.3-5c0-1.1,0.5-2,1.6-2.7
			s2.4-0.9,4.1-0.9c1.6,0,3.2,0.3,4.9,0.9c1.6,0.7,3.2,1.6,4.6,2.8l4.2-9.7c-2.1-1.5-4.5-2.5-6.9-3.2c-2.4-0.7-5-1.1-7.8-1.1
			c-5.2,0-9.3,1.3-12.5,4.1s-4.8,6.2-4.8,10.7c0,3.6,1.1,6.5,3.2,8.7c2.1,2.3,5.6,4,10.2,5c3.4,0.8,5.7,1.7,6.8,2.7
			c1.1,0.9,1.6,2.1,1.6,3.7c0,1.5-0.5,2.7-1.7,3.6c-1.2,0.9-2.7,1.3-4.4,1.3c-2.3,0-4.2-0.5-6.2-1.5c-1.9-0.9-3.8-2.4-5.6-4.4
			l-6.1,9c2.7,2.5,5.4,4.2,8.2,5.3c2.8,1.1,5.8,1.7,9.3,1.7c5.8,0,10.6-1.5,14.1-4.4c3.6-2.9,5.3-6.9,5.3-11.8
			C295.6,45.2,294.6,42,292.3,39.8z"/>
		<polygon class="st3" points="238.6,82.5 225.1,82.5 225.1,130.3 252.2,130.3 252.2,119.4 238.6,119.4 		"/>
		<rect x="257.5" y="82.5" class="st3" width="13" height="47.9"/>
		<path class="st3" d="M307,104.6c2.4-0.7,4.2-1.9,5.6-3.7c1.3-1.9,2.1-4,2.1-6.5c0-4.1-1.6-7-4.6-9s-8.7-2.9-17.1-2.9h-12.6v47.9
			H294c9,0,15.2-1.1,18.8-3.2c3.6-2.1,5.3-5.7,5.3-10.6c0-3.3-1.1-6-3.2-8.2C312.9,106.1,310.2,104.9,307,104.6z M293.1,91.7h1.1
			c2.8,0,4.8,0.4,6,1.2c1.2,0.8,1.9,2.1,1.9,3.8c0,1.7-0.7,2.9-1.9,3.6c-1.3,0.7-3.3,1.1-6.1,1.1h-0.9L293.1,91.7L293.1,91.7z
			 M302.9,119.8c-1.5,0.9-3.8,1.3-7,1.3H293v-10.9h3c3.2,0,5.4,0.4,6.9,1.3s2.1,2.3,2.1,4.1C305.3,117.6,304.5,118.9,302.9,119.8z"
			/>
	</g>
</g>
</svg>
