<svg width="57" height="62" viewBox="0 0 57 62" fill="none" xmlns="http://www.w3.org/2000/svg">
<path fill-rule="evenodd" clip-rule="evenodd" d="M15 0H0V36H15V0ZM21 0H36V36H21V0ZM42 0H44.4412C51.0958 0 55.0741 2.20262 56.3761 6.60793C56.792 8.03525 57 9.68281 57 11.5507V36H42V0Z" fill="white"/>
<path d="M11.2109 45.5096C9.91592 45.5096 8.95392 46.0276 8.30642 47.0821C7.73292 46.0276 6.82642 45.5096 5.58692 45.5096C4.38442 45.5096 3.45942 46.0091 2.83042 46.9896V45.7501H1.22092V55.0001H2.83042V49.8571C2.83042 47.9886 3.84792 47.0451 5.19842 47.0451C6.40092 47.0451 7.15942 47.8776 7.15942 49.3021V55.0001H8.76892V49.8571C8.76892 47.9516 9.65692 47.0451 11.0444 47.0451C12.2839 47.0451 13.0794 47.8776 13.0794 49.3021V55.0001H14.6889V49.2466C14.6889 46.9526 13.2829 45.5096 11.2109 45.5096Z" fill="white"/>
<path d="M17.7346 44.0666C18.3266 44.0666 18.8076 43.5856 18.8076 42.9936C18.8076 42.4016 18.3266 41.9021 17.7346 41.9021C17.1241 41.9021 16.6431 42.4016 16.6431 42.9936C16.6431 43.5856 17.1241 44.0666 17.7346 44.0666ZM18.5301 55.0001V45.7501H16.9206V55.0001H18.5301Z" fill="white"/>
<path d="M22.5951 55.0001V41.4951H20.9856V55.0001H22.5951Z" fill="white"/>
<path d="M25.8645 44.0666C26.4565 44.0666 26.9375 43.5856 26.9375 42.9936C26.9375 42.4016 26.4565 41.9021 25.8645 41.9021C25.254 41.9021 24.773 42.4016 24.773 42.9936C24.773 43.5856 25.254 44.0666 25.8645 44.0666ZM26.66 55.0001V45.7501H25.0505V55.0001H26.66Z" fill="white"/>
<path d="M33.7219 45.5096C32.3714 45.5096 31.3724 46.0276 30.7249 47.0821V45.7501H29.1154V55.0001H30.7249V50.0976C30.7249 48.0256 31.7979 47.0451 33.4074 47.0451C34.8319 47.0451 35.7014 47.9146 35.7014 49.4131V55.0001H37.3109V49.3206C37.3109 46.9711 35.8864 45.5096 33.7219 45.5096Z" fill="white"/>
<path d="M45.9403 50.6526C45.9403 52.7246 44.8673 53.7051 43.2578 53.7051C41.8333 53.7051 40.9638 52.8356 40.9638 51.3371V45.7501H39.3543V51.4296C39.3543 53.7791 40.7788 55.2406 42.9433 55.2406C44.2938 55.2406 45.2928 54.7226 45.9403 53.6681V55.0001H47.5498V45.7501H45.9403V50.6526Z" fill="white"/>
<path d="M51.3696 48.2476C51.3696 47.4521 52.1096 47.0081 53.0161 47.0081C53.9966 47.0081 54.6626 47.3966 54.9956 48.1921L56.3461 47.4336C55.7542 46.2311 54.5146 45.5096 53.0161 45.5096C52.0726 45.5096 51.2957 45.7686 50.6666 46.2866C50.0561 46.8046 49.7416 47.4706 49.7416 48.2661C49.7416 50.2271 51.6286 50.7081 53.0901 51.0966C54.1076 51.3371 54.9216 51.7441 54.9216 52.4656C54.9216 53.3351 54.1446 53.7236 53.0901 53.7236C51.9616 53.7236 51.0921 53.1686 50.7961 52.2806L49.4086 53.0761C49.9451 54.3896 51.2957 55.2406 53.0901 55.2406C54.1076 55.2406 54.9216 54.9816 55.5691 54.4821C56.2166 53.9826 56.5496 53.2981 56.5496 52.4656C56.5681 50.4861 54.6441 49.9496 53.2011 49.6351C52.1836 49.3576 51.3696 48.9691 51.3696 48.2476Z" fill="white"/>
</svg>
