<svg width="105" height="44" viewBox="0 0 105 44" fill="none" xmlns="http://www.w3.org/2000/svg">
<path d="M1.08984 2.98558V6.57906H6.51642V25.3725H10.3122V15.9758V6.57906H15.8612V2.98558H1.08984ZM42.2959 2.98558V6.57906H47.7459V25.3725H51.5377V6.57906H57.105V2.98558H42.2959ZM60.7001 2.98558V25.3738H76.0485V21.8737H64.4503V15.9148H74.3812V12.416H64.4503V6.39361H75.6122V2.98558H60.7001ZM26.0422 21.4393C25.1226 21.0412 24.2863 20.4732 23.5764 19.7664C22.8626 19.0544 22.296 18.2089 21.9104 17.2804C21.5066 16.3117 21.3021 15.2729 21.3112 14.2238H21.3151C21.3047 13.1825 21.5014 12.1502 21.8961 11.1854C22.2803 10.2568 22.8352 9.40871 23.5308 8.6812C24.2225 7.96147 25.0522 7.38698 25.9693 6.99015C27.8906 6.17056 30.0659 6.17056 31.9859 6.99015C32.9068 7.38957 33.7392 7.96406 34.4387 8.6812C35.1434 9.40742 35.7087 10.2555 36.1047 11.1854C36.5189 12.1515 36.7286 13.1915 36.7221 14.2419C36.7299 15.2898 36.5254 16.3298 36.1229 17.2985C35.74 18.2219 35.1851 19.0661 34.4882 19.7845C33.7926 20.4952 32.9641 21.0632 32.0497 21.4574C31.1119 21.8672 30.0985 22.0773 29.0746 22.0721C29.0681 22.0721 29.0616 22.0721 29.0551 22.0721C28.0182 22.0721 26.9918 21.8556 26.0422 21.4393ZM24.5351 3.65863C21.788 4.85818 19.6035 7.05499 18.4273 9.80295C17.8203 11.1983 17.5116 12.7039 17.5194 14.2238C17.5103 15.754 17.8216 17.27 18.4364 18.6732C19.0226 20.0232 19.8588 21.2499 20.9022 22.29C21.9443 23.3274 23.1778 24.1574 24.5351 24.7319C27.3813 25.9211 30.5882 25.9211 33.4357 24.7319C36.1985 23.5764 38.4038 21.4004 39.5878 18.6602C40.7992 15.8293 40.7992 12.63 39.5878 9.79906C39.0003 8.4348 38.1563 7.19634 37.1038 6.14592C36.0474 5.0968 34.8034 4.25387 33.4344 3.65993C32.0146 3.04523 30.4997 2.73789 28.9834 2.73789C27.4698 2.73659 25.9549 3.04394 24.5351 3.65863ZM79.1956 25.3738H82.9874V13.9489C82.9848 13.7738 82.964 13.6 82.9236 13.4288C82.8936 13.3173 82.8728 13.2045 82.8597 13.0904C82.8988 13.1721 83.1098 13.4729 83.4915 13.9943L84.9035 15.898C85.448 16.6462 86.0303 17.4555 86.6477 18.3256C87.2651 19.1971 87.8513 20.0115 88.4049 20.7675L89.8403 22.7335C90.2402 23.2847 90.4903 23.6231 90.5945 23.7463L97.9958 13.0774C97.9828 13.1915 97.9619 13.3056 97.932 13.4159C97.8916 13.5871 97.8708 13.7608 97.8682 13.9359V25.3738H101.91V2.00389L101.201 2.98428C100.838 3.49393 100.385 4.1177 99.839 4.85559C99.3088 5.63109 98.72 6.46105 98.0727 7.34678C97.4253 8.2325 96.761 9.13768 96.0836 10.0584C95.4063 10.9779 94.7472 11.8817 94.1089 12.7714C93.4706 13.661 92.8988 14.4533 92.3973 15.1497L91.1481 16.8862L90.5945 17.6681C90.5125 17.5475 90.291 17.2467 89.9315 16.7643C89.5707 16.2728 89.1343 15.6697 88.6185 14.9552C88.104 14.2407 87.5295 13.4483 86.8926 12.5768L84.927 9.9041L82.9522 7.21839C82.3074 6.33785 81.7213 5.53512 81.195 4.8089C80.6688 4.08269 80.2311 3.468 79.882 2.96483L79.2047 2L79.1956 25.3738Z" fill="white"/>
<path d="M91.6403 41.0108H91.0033V42.4788H91.6403C92.0467 42.5061 92.3997 42.2 92.4271 41.7954C92.4544 41.3895 92.147 41.0394 91.7406 41.0121C91.7067 41.0082 91.6742 41.0082 91.6403 41.0108ZM90.9929 43.9494H90.4028V40.4247H91.6403C92.3736 40.4234 92.9689 41.0147 92.9702 41.7448C92.9702 42.2389 92.6941 42.6928 92.2538 42.9211L92.8712 43.9494H92.0845L91.5556 43.0689H91.0007L90.9929 43.9494Z" fill="white"/>
<path d="M96.5993 40.4234H96.0093V43.9481H96.5993V40.4234Z" fill="white"/>
<path d="M99.9118 42.0794C99.7217 41.8966 99.6253 41.6372 99.6474 41.3739C99.7138 40.8098 100.198 40.3871 100.769 40.3961C101.311 40.3961 101.89 40.8046 101.89 41.1781L101.3 41.3739C101.3 41.1574 101.063 40.9823 100.769 40.9823C100.473 40.9823 100.236 41.1574 100.236 41.3739C100.236 41.5905 100.463 41.7552 100.769 41.8058C101.001 41.833 101.229 41.8888 101.446 41.9705C101.82 42.1313 102.044 42.519 101.992 42.9211C101.927 43.5409 101.398 44.0078 100.772 43.9974C100.175 43.9974 99.551 43.5759 99.551 43.1169L100.141 42.9211C100.141 43.1908 100.507 43.41 100.772 43.41C101.036 43.41 101.402 43.1908 101.402 42.9211C101.402 42.5839 101.063 42.4659 100.772 42.392C100.39 42.2817 100.112 42.2558 99.9118 42.0794Z" fill="white"/>
<path d="M85.9781 41.7967L86.378 42.7745H85.5756L85.9781 41.7967ZM84.4229 43.9481H85.1002L85.3412 43.3607H86.632L86.873 43.9481H87.5504L85.9951 40.4234L84.4229 43.9481Z" fill="white"/>
<path d="M80.1191 41.0108H79.4822V42.4788H80.1191C80.5268 42.5061 80.8785 42.2 80.9059 41.7954C80.9332 41.3895 80.6258 41.0394 80.2194 41.0121C80.1868 41.0082 80.153 41.0082 80.1191 41.0108ZM79.4822 43.9494H78.8921V40.4247H80.1191C80.8525 40.4234 81.4477 41.0147 81.449 41.7461C81.4503 42.4762 80.8564 43.0689 80.1217 43.0702H80.1191H79.4822V43.9494Z" fill="white"/>
<path d="M102 32.5582H1V33.2377H102V32.5582Z" fill="white"/>
</svg>
