<svg width="107" height="107" viewBox="0 0 107 107" fill="none" xmlns="http://www.w3.org/2000/svg">
<circle cx="53.5" cy="53.5" r="47.5" fill="#FCFCFC"/>
<circle cx="53.5" cy="53.5" r="50.5" stroke="#77CEFF" stroke-opacity="0.1" stroke-width="6"/>
<path fill-rule="evenodd" clip-rule="evenodd" d="M60.5348 38.2245L57.8869 35.5105L59.9425 33.5038L61.7308 35.3351L64.2895 35.3035C65.3971 35.2904 66.4961 35.4989 67.522 35.9167C68.5478 36.3345 69.4798 36.9533 70.263 37.7365C71.0463 38.5198 71.665 39.4517 72.0828 40.4775C72.5006 41.5034 72.7091 42.6024 72.696 43.71L72.6673 46.2688L74.4958 48.057C75.2877 48.8309 75.917 49.7552 76.3466 50.7757C76.7762 51.7963 76.9976 52.8924 76.9976 53.9996C76.9976 55.1069 76.7762 56.203 76.3466 57.2235C75.917 58.244 75.2877 59.1684 74.4958 59.9423L72.6644 61.7305L72.696 64.2893C72.7091 65.3969 72.5006 66.4959 72.0828 67.5217C71.665 68.5476 71.0463 69.4795 70.263 70.2628C69.4798 71.046 68.5478 71.6647 67.522 72.0826C66.4961 72.5004 65.3971 72.7089 64.2895 72.6958L61.7308 72.667L59.9425 74.4955C59.1686 75.2875 58.2443 75.9167 57.2238 76.3464C56.2033 76.776 55.1072 76.9973 53.9999 76.9973C52.8926 76.9973 51.7965 76.776 50.776 76.3464C49.7555 75.9167 48.8311 75.2875 48.0573 74.4955L46.269 72.6641L43.7103 72.6958C42.6027 72.7089 41.5036 72.5004 40.4778 72.0826C39.4519 71.6647 38.52 71.046 37.7368 70.2628C36.9535 69.4795 36.3348 68.5476 35.917 67.5217C35.4991 66.4959 35.2906 65.3969 35.3038 64.2893L35.3325 61.7305L33.504 59.9423C32.7121 59.1684 32.0828 58.244 31.6531 57.2235C31.2235 56.203 31.0022 55.1069 31.0022 53.9996C31.0022 52.8924 31.2235 51.7963 31.6531 50.7757C32.0828 49.7552 32.7121 48.8309 33.504 48.057L35.3354 46.2688L35.3038 43.71C35.2906 42.6024 35.4991 41.5034 35.917 40.4775C36.3348 39.4517 36.9535 38.5198 37.7368 37.7365C38.52 36.9533 39.4519 36.3345 40.4778 35.9167C41.5036 35.4989 42.6027 35.2904 43.7103 35.3035L46.269 35.3323L48.0573 33.5038C48.8311 32.7118 49.7555 32.0825 50.776 31.6529C51.7965 31.2233 52.8926 31.002 53.9999 31.002C55.1072 31.002 56.2033 31.2233 57.2238 31.6529C58.2443 32.0825 59.1686 32.7118 59.9425 33.5038L57.8869 35.5105C57.3808 34.9924 56.7762 34.5807 56.1087 34.2996C55.4411 34.0185 54.7242 33.8737 53.9999 33.8737C53.2756 33.8737 52.5586 34.0185 51.8911 34.2996C51.2236 34.5807 50.619 34.9924 50.1129 35.5105L47.4679 38.2245L43.6729 38.1785C42.9489 38.1704 42.2306 38.3071 41.5602 38.5805C40.8897 38.8539 40.2807 39.2586 39.7689 39.7707C39.2571 40.2828 38.8527 40.892 38.5797 41.5626C38.3066 42.2332 38.1703 42.9515 38.1788 43.6755L38.2248 47.4648L35.5108 50.1126C34.9926 50.6187 34.5809 51.2233 34.2999 51.8909C34.0188 52.5584 33.874 53.2754 33.874 53.9996C33.874 54.7239 34.0188 55.4409 34.2999 56.1084C34.5809 56.7759 34.9926 57.3805 35.5108 57.8866L38.2248 60.5316L38.1788 64.3266C38.1707 65.0506 38.3073 65.7689 38.5808 66.4394C38.8542 67.1098 39.2588 67.7188 39.7709 68.2306C40.283 68.7425 40.8923 69.1468 41.5628 69.4199C42.2334 69.6929 42.9518 69.8292 43.6758 69.8208L47.465 69.7748L50.1129 72.4888C50.619 73.0069 51.2236 73.4186 51.8911 73.6997C52.5586 73.9808 53.2756 74.1256 53.9999 74.1256C54.7242 74.1256 55.4411 73.9808 56.1087 73.6997C56.7762 73.4186 57.3808 73.0069 57.8869 72.4888L60.5319 69.7748L64.3269 69.8208C65.0509 69.8289 65.7692 69.6922 66.4396 69.4188C67.11 69.1453 67.719 68.7407 68.2309 68.2286C68.7427 67.7165 69.147 67.1073 69.4201 66.4367C69.6932 65.7661 69.8295 65.0477 69.821 64.3238L69.775 60.5345L72.489 57.8866C73.0071 57.3805 73.4188 56.7759 73.6999 56.1084C73.981 55.4409 74.1258 54.7239 74.1258 53.9996C74.1258 53.2754 73.981 52.5584 73.6999 51.8909C73.4188 51.2233 73.0071 50.6187 72.489 50.1126L69.775 47.4676L69.821 43.6726C69.8291 42.9487 69.6924 42.2303 69.419 41.5599C69.1456 40.8895 68.7409 40.2805 68.2288 39.7686C67.7167 39.2568 67.1075 38.8525 66.4369 38.5794C65.7664 38.3063 65.048 38.17 64.324 38.1785L60.5348 38.2245Z" fill="url(#paint0_linear)"/>
<path fill-rule="evenodd" clip-rule="evenodd" d="M60.7679 48.6684C60.9017 48.8019 61.0079 48.9606 61.0804 49.1352C61.1529 49.3099 61.1902 49.4971 61.1902 49.6862C61.1902 49.8752 61.1529 50.0625 61.0804 50.2371C61.0079 50.4118 60.9017 50.5704 60.7679 50.7039L52.1429 59.3289C52.0093 59.4628 51.8507 59.569 51.6761 59.6415C51.5014 59.7139 51.3142 59.7512 51.1251 59.7512C50.936 59.7512 50.7488 59.7139 50.5742 59.6415C50.3995 59.569 50.2409 59.4628 50.1074 59.3289L45.7949 55.0164C45.6612 54.8828 45.5552 54.7241 45.4829 54.5495C45.4105 54.3748 45.3733 54.1877 45.3733 53.9987C45.3733 53.8096 45.4105 53.6225 45.4829 53.4479C45.5552 53.2732 45.6612 53.1146 45.7949 52.9809C45.9285 52.8473 46.0872 52.7412 46.2618 52.6689C46.4364 52.5966 46.6236 52.5593 46.8126 52.5593C47.0016 52.5593 47.1888 52.5966 47.3634 52.6689C47.538 52.7412 47.6967 52.8473 47.8304 52.9809L51.1251 56.2785L58.7324 48.6684C58.8659 48.5345 59.0245 48.4283 59.1992 48.3559C59.3738 48.2834 59.561 48.2461 59.7501 48.2461C59.9392 48.2461 60.1264 48.2834 60.3011 48.3559C60.4757 48.4283 60.6343 48.5345 60.7679 48.6684Z" fill="url(#paint1_linear)"/>
<defs>
<linearGradient id="paint0_linear" x1="68.3504" y1="63.5159" x2="48.2794" y2="39.5377" gradientUnits="userSpaceOnUse">
<stop stop-color="#2F8975"/>
<stop offset="1" stop-color="#0078A3"/>
</linearGradient>
<linearGradient id="paint1_linear" x1="58.2166" y1="56.379" x2="53.6857" y2="48.9375" gradientUnits="userSpaceOnUse">
<stop stop-color="#2F8975"/>
<stop offset="1" stop-color="#0078A3"/>
</linearGradient>
</defs>
</svg>
