<svg width="71" height="71" viewBox="0 0 71 71" fill="none" xmlns="http://www.w3.org/2000/svg">
<circle cx="35.5" cy="35.5" r="35.5" fill="#EDF7FE"/>
<circle cx="35.5001" cy="35.4999" r="24.9596" fill="#FCFCFC" stroke="#CCEAFF"/>
<path d="M35.9997 37.1667C35.6903 37.1667 35.3935 37.0525 35.1747 36.8494C34.9559 36.6462 34.833 36.3707 34.833 36.0833V32.8333C34.833 32.546 34.9559 32.2705 35.1747 32.0673C35.3935 31.8641 35.6903 31.75 35.9997 31.75C36.3091 31.75 36.6058 31.8641 36.8246 32.0673C37.0434 32.2705 37.1663 32.546 37.1663 32.8333V36.0833C37.1663 36.3707 37.0434 36.6462 36.8246 36.8494C36.6058 37.0525 36.3091 37.1667 35.9997 37.1667Z" fill="#f6bb42"/>
<path d="M34.25 39.875C34.25 39.444 34.4344 39.0307 34.7626 38.726C35.0908 38.4212 35.5359 38.25 36 38.25C36.4641 38.25 36.9092 38.4212 37.2374 38.726C37.5656 39.0307 37.75 39.444 37.75 39.875C37.75 40.306 37.5656 40.7193 37.2374 41.024C36.9092 41.3288 36.4641 41.5 36 41.5C35.5359 41.5 35.0908 41.3288 34.7626 41.024C34.4344 40.7193 34.25 40.306 34.25 39.875Z" fill="#f6bb42"/>
<path d="M33.9349 25.484C34.8099 23.9402 37.1899 23.9402 38.0649 25.484L47.7984 42.657C48.6162 44.1 47.4916 45.8333 45.7334 45.8333H26.2664C24.5106 45.8333 23.3847 44.1 24.2014 42.6581L33.9349 25.484ZM45.7346 43.6666L35.9999 26.4926L26.2652 43.6666H45.7346Z" fill="#f6bb42"/>
</svg>
