<svg width="105" height="104" viewBox="0 0 105 104" fill="none" xmlns="http://www.w3.org/2000/svg">
  <path d="M52.7637 27.4678C39.254 27.4678 28.4961 38.2257 28.4961 51.7353C28.4961 65.245 39.254 76.012 52.7637 76.012C66.2733 76.012 77.0312 65.2465 77.0312 51.7353C77.0312 38.2242 66.2733 27.4678 52.7637 27.4678ZM33.7673 51.9478L52.5572 70.7317C42.2106 70.7317 33.7673 62.2884 33.7673 51.9478ZM56.9846 70.3128L34.1938 47.5144C36.0925 39.0711 43.6889 32.739 52.7637 32.739C55.7638 32.7452 58.7207 33.4552 61.3965 34.812C64.0723 36.1687 66.3925 38.1344 68.1705 40.5509L65.4279 42.8746C63.9988 40.7814 62.0782 39.0707 59.8343 37.8924C57.5904 36.7141 55.0917 36.1041 52.5572 36.116C49.3506 36.0968 46.2189 37.0856 43.6047 38.9428C40.9905 40.7999 39.0258 43.4314 37.9882 46.4657L57.83 66.3059C62.6823 64.6136 66.4858 60.3927 67.5376 55.3249H59.3068V51.7369H71.7585C71.7585 60.8116 65.4264 68.4156 56.9831 70.3143L56.9846 70.3128Z" fill="currentColor" />
</svg>
