<svg width="105" height="105" viewBox="0 0 105 105" fill="none" xmlns="http://www.w3.org/2000/svg">
  <g>
    <path
      d="M72.2209 55.653L70.0393 48.9251L65.703 35.5926C65.655 35.4432 65.5609 35.3128 65.434 35.2203C65.3072 35.1278 65.1543 35.0779 64.9973 35.0779C64.8404 35.0779 64.6874 35.1278 64.5606 35.2203C64.4338 35.3128 64.3396 35.4432 64.2917 35.5926L59.9554 48.919H45.573L41.2367 35.5926C41.0133 34.9053 40.0415 34.9053 39.8254 35.5926L35.4891 48.919L33.3014 55.653C33.1048 56.2634 33.327 56.9373 33.8422 57.3182L52.7648 71.0658L71.6874 57.3182C72.2013 56.9373 72.4247 56.2695 72.2209 55.653Z"
      fill="currentColor"
    />
  </g>
</svg>
