<svg width="104" height="104" viewBox="0 0 104 104" fill="none" xmlns="http://www.w3.org/2000/svg">
  <path d="M56.0526 35.1731L65.1683 40.4419C65.5925 39.9961 66.1146 39.6551 66.6933 39.4458C67.272 39.2366 67.8914 39.1648 68.5027 39.2362C69.1139 39.3076 69.7001 39.5201 70.215 39.8571C70.7299 40.1941 71.1594 40.6462 71.4695 41.1777C71.7759 41.7113 71.9539 42.3088 71.9893 42.9231C72.0246 43.5373 71.9165 44.1514 71.6734 44.7166C71.4302 45.2818 71.0588 45.7826 70.5885 46.1793C70.1183 46.576 69.562 46.8578 68.964 47.0022V57.5328C69.5631 57.6742 70.1207 57.9541 70.5921 58.35C71.0635 58.7458 71.4355 59.2467 71.6783 59.8124C71.9211 60.378 72.028 60.9927 71.9903 61.6072C71.9525 62.2216 71.7713 62.8186 71.4612 63.3503C71.1475 63.8918 70.7101 64.3512 70.1848 64.6911C69.6594 65.0309 69.061 65.2415 68.4386 65.3056C67.8162 65.3697 67.1874 65.2854 66.6038 65.0597C66.0202 64.8341 65.4984 64.4734 65.081 64.0072L56.0152 69.2399C56.2117 69.8341 56.2643 70.4664 56.1689 71.0848C56.0734 71.7033 55.8326 72.2903 55.4661 72.7976C55.0996 73.3049 54.618 73.7179 54.0609 74.0029C53.5037 74.2878 52.8869 74.4365 52.2611 74.4366C51.646 74.4371 51.0393 74.2939 50.4893 74.0184C49.9394 73.7429 49.4614 73.3428 49.0934 72.8499C48.7254 72.357 48.4776 71.785 48.3698 71.1794C48.262 70.5738 48.2971 69.9515 48.4723 69.3619L39.3497 64.1C38.9915 64.4766 38.5624 64.7787 38.0872 64.9891C37.6119 65.1996 37.0998 65.3141 36.5802 65.3262C36.0606 65.3383 35.5438 65.2477 35.0592 65.0597C34.5747 64.8716 34.1321 64.5898 33.7567 64.2303C33.2453 63.7386 32.8753 63.1187 32.6854 62.4352C32.4954 61.7517 32.4925 61.0297 32.6768 60.3447C32.8612 59.6596 33.2261 59.0367 33.7334 58.5408C34.2407 58.045 34.8719 57.6945 35.561 57.5259V46.9953C35.0086 46.8638 34.4911 46.6148 34.0436 46.2654C33.5961 45.9159 33.2292 45.4741 32.9678 44.9701C32.7063 44.4661 32.5566 43.9117 32.5287 43.3446C32.5008 42.7775 32.5954 42.211 32.8061 41.6838C33.0168 41.1566 33.3386 40.6809 33.7497 40.2892C34.1607 39.8975 34.6513 39.599 35.1881 39.414C35.7249 39.2289 36.2952 39.1617 36.8603 39.2169C37.4254 39.2721 37.972 39.4483 38.4628 39.7337C38.7871 39.9208 39.0906 40.1523 39.3511 40.4266L48.4737 35.1648C48.1762 34.1607 48.2896 33.0795 48.7891 32.1591C49.2886 31.2386 50.1332 30.5542 51.1372 30.2564C51.8199 30.0522 52.5451 30.0366 53.2359 30.2111C53.9267 30.3856 54.5575 30.7438 55.0613 31.2476C55.5652 31.7514 55.9233 32.3822 56.0978 33.073C56.2724 33.7639 56.2567 34.4891 56.0526 35.1717V35.1731ZM55.1006 36.7973C55.0645 36.8333 55.0354 36.8693 54.9925 36.9054L66.931 57.5771C66.9809 57.5633 67.0391 57.548 67.0821 57.5342V46.9897C66.5793 46.8654 66.1059 46.6431 65.6892 46.3354C65.2725 46.0278 64.9206 45.6409 64.6537 45.197C64.3868 44.7531 64.2102 44.2609 64.134 43.7486C64.0577 43.2363 64.0833 42.7139 64.2093 42.2115C64.2163 42.1686 64.2315 42.1173 64.2384 42.0743L55.1006 36.7973ZM49.5283 36.9054L49.4202 36.7973L40.2823 42.066C40.5717 43.072 40.45 44.1516 39.9438 45.0678C39.4376 45.984 38.5884 46.6618 37.5828 46.9523L37.4387 46.9883V57.5328L37.5981 57.5757L49.5366 36.904L49.5283 36.9054ZM53.3683 37.8435C52.6483 38.0459 51.8864 38.0459 51.1663 37.8435L39.2278 58.5153C39.7696 59.035 40.1521 59.7057 40.3392 60.4429H64.1941C64.3742 59.7071 64.7567 59.035 65.3055 58.5084L53.3683 37.8435ZM55.1865 67.825L64.2662 62.5784C64.2371 62.4911 64.2163 62.4052 64.1941 62.3179H40.3322L40.2893 62.469L49.4202 67.7377C49.7884 67.3554 50.2301 67.0515 50.7188 66.8443C51.2075 66.6371 51.7331 66.5309 52.2639 66.5321C53.4265 66.5321 54.4659 67.0296 55.1865 67.8236V67.825Z" fill="currentColor" />
</svg>
