<svg width="105" height="105" viewBox="0 0 105 105" fill="none" xmlns="http://www.w3.org/2000/svg">
  <path d="M52.3887 31.7607C55.1618 31.7607 57.9077 32.3069 60.4698 33.3682C63.0318 34.4294 65.3596 35.9848 67.3205 37.9457C69.2814 39.9066 70.8368 42.2345 71.8981 44.7965C72.9593 47.3585 73.5055 50.1044 73.5055 52.8775C73.5055 58.478 71.2807 63.8491 67.3205 67.8093C63.3604 71.7694 57.9892 73.9942 52.3887 73.9942C49.6156 73.9942 46.8697 73.448 44.3077 72.3868C41.7457 71.3256 39.4178 69.7702 37.4569 67.8093C33.4968 63.8491 31.272 58.478 31.272 52.8775C31.272 47.277 33.4968 41.9059 37.4569 37.9457C41.4171 33.9855 46.7882 31.7607 52.3887 31.7607ZM62.4192 58.0511C66.4314 54.0389 66.2835 47.366 62.0813 43.1849C57.8791 39.0038 51.2273 38.8349 47.2151 42.847C39.9721 50.0901 42.2949 62.9713 42.2949 62.9713C42.2949 62.9713 55.1972 65.273 62.4192 58.0511ZM54.8171 44.1352L56.8866 48.3796L61.1311 50.4491L56.8866 52.5185L54.8171 56.763L52.7477 52.5185L48.5032 50.4491L52.7477 48.3796L54.8171 44.1352Z" fill="currentColor" />
</svg>
