<svg width="105" height="105" viewBox="0 0 105 105" fill="none" xmlns="http://www.w3.org/2000/svg">
  <path d="M64.0499 45.0207C64.309 45.1528 64.5492 45.3312 64.7448 45.5474L70.1167 43.1522L65.1051 38.1835L63.9778 44.9486L64.0499 45.0207ZM52.8976 40.5066C53.1653 40.8995 53.3248 41.3456 53.3797 41.8191L61.3768 45.2077C61.617 45.0207 61.8932 44.8851 62.1883 44.8045L63.5009 36.6805L58.6299 31.5693L52.8942 40.3796L52.8976 40.5066ZM80.195 53.0623L71.6249 44.4922L65.7897 46.8788L80.1246 52.9731C80.1246 52.9731 80.2499 53.0623 80.195 53.0623ZM78.7658 54.4572L65.0056 48.5757C64.814 48.8292 64.5738 49.042 64.2989 49.2014C64.024 49.3608 63.72 49.4636 63.4048 49.5039L61.931 58.5578C62.3685 59.0039 62.619 59.6027 62.619 60.2272L70.9283 61.9704L78.5513 54.4006V54.2582L78.7658 54.4572ZM60.5361 46.6901L53.0675 43.5074C52.8106 43.9027 52.4558 44.2248 52.0376 44.4425C51.6194 44.6602 51.152 44.766 50.6809 44.7496H50.2262L44.0341 54.3028L60.5652 47.1448V47.1636C60.5567 47.0357 60.5567 46.9073 60.5652 46.7793C60.5738 46.7519 60.5652 46.7175 60.5378 46.6901H60.5361ZM69.6157 63.4117L62.3067 61.9001C62.0352 62.2558 61.6697 62.5285 61.2515 62.6876L59.5083 73.4916L69.6604 63.4288C69.6604 63.4288 69.6415 63.4837 69.614 63.4837L69.6157 63.4117ZM59.3917 62.667C59.0454 62.5253 58.7373 62.3044 58.492 62.0219C58.2468 61.7394 58.0713 61.4032 57.9796 61.0405L44.3704 58.2456L44.1731 58.5596L56.5247 76.4221L57.2659 75.6895L59.3659 62.7134C59.3659 62.7134 59.4363 62.7665 59.3917 62.7408V62.667ZM44.6569 56.6002L58.1066 59.3711C58.2994 59.033 58.5721 58.7473 58.9008 58.5389C59.2295 58.3304 59.6042 58.2056 59.9922 58.1752L61.4488 49.274L61.1349 49.0063L44.4167 56.173C44.5059 56.3051 44.5866 56.4492 44.6569 56.6002ZM39.0173 58.8427L38.7308 58.5596L32.9316 60.9427L35.7454 63.7411L38.9453 58.7723L39.0173 58.8427ZM42.8434 59.7554C42.4391 59.9376 42.0017 60.0351 41.5583 60.042C41.1997 60.042 40.86 59.987 40.5203 59.8721L36.991 65.0107L52.4687 80.3443L55.1933 77.6351L42.8434 59.7554ZM40.6713 53.7143C40.9029 53.6886 41.1448 53.6886 41.385 53.7143C41.6458 53.68 41.9135 53.68 42.1725 53.7143L48.4264 43.9912C47.9393 43.4843 47.6669 42.8087 47.6663 42.1056C47.6406 41.8983 47.6406 41.6885 47.6663 41.4811L40.0708 37.969L33.9576 43.9192L40.6713 53.7143ZM41.361 36.78L48.7678 39.9352C49.3028 39.4885 49.9845 39.2562 50.6809 39.2833C50.9846 39.2918 51.2865 39.3364 51.5816 39.4257L57.3654 30.4009L52.5836 25.6191L41.361 36.6359C41.361 36.6359 41.3421 36.7526 41.361 36.78ZM38.5901 55.4575C38.7411 55.1813 38.9281 54.9222 39.1443 54.6889L32.8081 45.2334L25.312 52.5167L38.5901 55.4575ZM37.9913 57.0566L26.525 54.6614L31.5642 59.7743L37.9192 57.0754L37.9913 57.0566Z" fill="currentColor" />
</svg>
