<svg width="105" height="104" viewBox="0 0 105 105" fill="none" xmlns="http://www.w3.org/2000/svg">
  <g>
    <path
      d="M71.0636 42.4032C70.3894 42.1738 69.7095 41.9612 69.0245 41.7658C69.1396 41.2995 69.2455 40.8388 69.3395 40.3862C70.8832 32.9542 69.874 26.9668 66.4271 24.9954C63.1223 23.1056 57.7175 25.0762 52.2589 29.7878C51.721 30.253 51.195 30.7316 50.6814 31.2231C50.3376 30.8962 49.9877 30.5757 49.6319 30.2617C43.9111 25.2239 38.1769 23.1006 34.7337 25.0776C31.4318 26.9734 30.4541 32.602 31.8438 39.6455C31.9821 40.3431 32.1382 41.0371 32.312 41.7268C31.5004 41.9555 30.7171 42.199 29.9676 42.4582C23.2604 44.7775 18.9771 48.4122 18.9771 52.1823C18.9771 56.0762 23.5754 59.9818 30.5612 62.35C31.1276 62.5412 31.6987 62.7184 32.2739 62.8814C32.0871 63.6242 31.9212 64.3721 31.7765 65.1242C30.4516 72.0455 31.4863 77.541 34.7792 79.4248C38.1803 81.3701 43.8888 79.3708 49.447 74.5516C49.8978 74.1598 50.3385 73.7569 50.769 73.3433C51.3252 73.8756 51.8962 74.3923 52.4814 74.893C57.8657 79.4881 63.1832 81.3436 66.4729 79.4547C69.8708 77.5037 70.9752 71.6 69.5414 64.4173C69.4285 63.8546 69.3018 63.2947 69.1616 62.7381C69.5625 62.6202 69.9559 62.499 70.3395 62.3728C77.602 59.9865 82.3273 56.1282 82.3273 52.1823C82.3273 48.3985 77.9057 44.7393 71.0636 42.4032V42.4032ZM69.4885 59.8252C69.142 59.9389 68.7867 60.0486 68.4244 60.1553C67.6226 57.6379 66.5407 54.9612 65.2166 52.1954C66.4801 49.4956 67.5204 46.853 68.2997 44.352C68.9478 44.538 69.5766 44.7341 70.1829 44.941C76.0452 46.9428 79.6211 49.902 79.6211 52.1823C79.6211 54.6112 75.7592 57.7643 69.4885 59.8252V59.8252ZM66.8867 64.9386C67.5207 68.1146 67.611 70.9862 67.1911 73.2312C66.8139 75.2484 66.0552 76.5932 65.1168 77.1319C63.1205 78.2781 58.8511 76.7883 54.2466 72.8584C53.7022 72.3929 53.1711 71.9124 52.6537 71.4177C54.4388 69.4814 56.2228 67.2305 57.9639 64.7305C61.0265 64.461 63.9199 64.0202 66.5437 63.4187C66.6729 63.9358 66.7877 64.4429 66.8867 64.9386V64.9386ZM40.5745 76.9338C38.624 77.6169 37.0705 77.6365 36.1314 77.0995C34.1331 75.9565 33.3024 71.5438 34.4355 65.6249C34.5702 64.9254 34.7244 64.2299 34.898 63.5389C37.4929 64.1083 40.3652 64.5177 43.435 64.7646C45.188 67.2109 47.0234 69.4593 48.8732 71.4282C48.4801 71.8055 48.0777 72.1731 47.6663 72.5307C45.2083 74.6616 42.7453 76.1735 40.5745 76.9338V76.9338ZM31.4368 59.8103C28.3477 58.763 25.7966 57.402 24.048 55.9169C22.4767 54.5825 21.6835 53.2574 21.6835 52.1823C21.6835 49.8944 25.1225 46.9762 30.8584 44.9928C31.5546 44.7523 32.2831 44.5252 33.0391 44.3122C33.8319 46.8696 34.8718 49.5437 36.1267 52.2476C34.8554 54.9916 33.8008 57.7083 33.0002 60.296C32.4751 60.1468 31.9538 59.9848 31.4368 59.8103V59.8103ZM34.4998 39.1298C33.3093 33.0953 34.0999 28.5432 36.0898 27.4007C38.2091 26.1838 42.8955 27.9188 47.8351 32.2689C48.1572 32.5532 48.4741 32.8433 48.7856 33.139C46.945 35.0993 45.1264 37.331 43.3889 39.7628C40.4095 40.0367 37.5575 40.4765 34.9354 41.0658C34.7738 40.4243 34.6286 39.7788 34.4998 39.1301V39.1298ZM61.8263 45.8224C61.207 44.7613 60.5647 43.7136 59.8998 42.6801C61.9211 42.9336 63.8577 43.2701 65.6763 43.6814C65.1304 45.4172 64.4499 47.2317 63.6489 49.0921C63.0634 47.9902 62.4557 46.9001 61.8263 45.8224V45.8224ZM50.6826 35.0573C51.9308 36.3986 53.181 37.896 54.4106 39.5208C51.9162 39.404 49.4176 39.4035 46.9232 39.5193C48.1541 37.9095 49.4149 36.4141 50.6826 35.0573ZM39.4674 45.8408C38.8459 46.9099 38.2496 47.9932 37.679 49.0899C36.8911 47.2361 36.2167 45.4132 35.6661 43.653C37.4736 43.2519 39.4011 42.924 41.4095 42.6751C40.7372 43.715 40.0897 44.7705 39.4674 45.8405V45.8408ZM41.4671 61.8805C39.3922 61.6508 37.4357 61.3398 35.6288 60.9496C36.188 59.1579 36.8772 57.2963 37.6822 55.4027C38.255 56.5002 38.8538 57.5842 39.478 58.6538C40.12 59.7533 40.7846 60.8303 41.4671 61.8805ZM50.7574 69.4964C49.4745 68.1239 48.1951 66.6054 46.9457 64.9723C48.1588 65.0194 49.3953 65.0434 50.6522 65.0434C51.9434 65.0434 53.2198 65.0147 54.4762 64.9593C53.2426 66.6218 51.9971 68.1426 50.7574 69.4964ZM63.6744 55.306C64.5212 57.2204 65.2349 59.0722 65.8016 60.8332C63.9649 61.249 61.9817 61.5838 59.8922 61.8324C60.5617 60.7796 61.2101 59.7137 61.837 58.6354C62.4743 57.5392 63.0869 56.4292 63.6744 55.306V55.306ZM59.4928 57.2943C58.5331 58.9476 57.5196 60.5696 56.4537 62.1576C54.5229 62.2932 52.5878 62.3606 50.6522 62.3596C48.6807 62.3596 46.7631 62.2987 44.9165 62.1799C43.8228 60.5956 42.7899 58.9708 41.82 57.309H41.8203C40.855 55.656 39.9533 53.9673 39.1172 52.2464C39.9512 50.5251 40.8501 48.8356 41.8121 47.1813L41.8118 47.1816C42.7735 45.5269 43.7981 43.9091 44.8836 42.3315C46.7675 42.1902 48.6995 42.1165 50.6519 42.1165H50.6522C52.6136 42.1165 54.548 42.1909 56.4314 42.3332C57.5059 43.9084 58.524 45.5207 59.4838 47.1671C60.4491 48.8177 61.3599 50.499 62.2148 52.2084C61.3686 53.9352 60.4607 55.6316 59.4928 57.2943V57.2943ZM65.0755 27.3207C67.1967 28.5341 68.0218 33.4274 66.6889 39.8443C66.6038 40.2537 66.5083 40.6707 66.4044 41.0936C63.7758 40.4917 60.9219 40.0443 57.9337 39.7662C56.1931 37.3077 54.3894 35.0725 52.5787 33.1375C53.0532 32.6838 53.539 32.2419 54.0357 31.8121C58.7128 27.7755 63.0839 26.1816 65.0755 27.3207V27.3207ZM50.6522 46.5717C53.7764 46.5717 56.3092 49.0837 56.3092 52.1823C56.3092 55.281 53.7764 57.793 50.6522 57.793C47.528 57.793 44.9952 55.281 44.9952 52.1823C44.9952 49.0837 47.528 46.5717 50.6522 46.5717V46.5717Z"
      fill="currentColor"
    />
  </g>
</svg>
