<svg width="105" height="105" viewBox="0 0 105 105" fill="none" xmlns="http://www.w3.org/2000/svg">
  <path d="M55.4721 47.9888C51.79 46.604 49.7837 45.5424 49.7837 43.855C49.7837 42.4289 50.9409 41.615 53.0061 41.615C56.781 41.615 60.6579 43.0869 63.3277 44.4121L64.8359 34.9866C62.7186 33.9641 58.3888 32.2881 52.4037 32.2881C48.1691 32.2881 44.6478 33.4092 42.1319 35.5002C39.5164 37.6875 38.1532 40.8515 38.1532 44.6712C38.1532 51.6022 42.3357 54.5575 49.1292 57.0589C53.5133 58.6363 54.9694 59.7597 54.9694 61.4931C54.9694 63.1713 53.545 64.1412 50.9793 64.1412C47.8022 64.1412 42.5644 62.5615 39.1337 60.5232L37.6074 70.0542C40.5603 71.7324 45.9974 73.4658 51.6406 73.4658C56.1153 73.4658 59.8472 72.395 62.363 70.3568C65.1823 68.1168 66.643 64.8038 66.643 60.5232C66.643 53.4364 62.3653 50.481 55.4676 47.9865H55.4721V47.9888Z" fill="currentColor" />
</svg>
