<svg width="105" height="105" viewBox="0 0 105 105" fill="none" xmlns="http://www.w3.org/2000/svg">
  <path d="M29.5352 55.7099V78.9383H75.992V32.4814H29.5352V55.7099ZM66.9707 53.8574C68.0844 54.1196 69.0965 54.7032 69.8815 55.5357C70.3054 55.9886 70.9398 56.8205 70.9935 57.0252C71.0081 57.0862 68.9901 58.4392 67.7648 59.1956C67.7198 59.2261 67.5383 59.0373 67.3409 58.7412C66.7442 57.8716 66.1156 57.4941 65.1559 57.4259C63.7492 57.3344 62.8418 58.069 62.8491 59.3016C62.8417 59.6032 62.909 59.9019 63.0451 60.1712C63.3557 60.8143 63.9379 61.199 65.7367 61.9786C69.0641 63.4072 70.4854 64.3523 71.3696 65.6908C72.3597 67.1876 72.5789 69.5772 71.914 71.3615C71.1736 73.2894 69.3429 74.6047 66.7718 75.0359C65.9777 75.1797 64.0874 75.1564 63.2323 74.9982C61.3654 74.6657 59.5956 73.7424 58.5068 72.5331C58.0756 72.0641 57.2438 70.8316 57.2975 70.7488C57.3207 70.7183 57.5094 70.5978 57.7214 70.4759L59.4461 69.4771L60.7847 68.6989L61.0648 69.1141C61.4583 69.7108 62.3119 70.5282 62.8273 70.7996C64.3096 71.5865 66.3435 71.4733 67.3496 70.5732C67.7575 70.2334 67.9855 69.7108 67.955 69.1824C67.955 68.6452 67.8867 68.4042 67.6066 68.0021C67.2436 67.4881 66.5105 67.0497 64.4155 66.1423C62.0187 65.1058 60.9821 64.4713 60.0457 63.4507C59.4562 62.779 59.0202 61.9868 58.7681 61.1294C58.5939 60.4717 58.5489 58.8225 58.6854 58.1648C59.1775 55.8434 60.9313 54.2334 63.4487 53.7572C64.266 53.599 66.1707 53.6585 66.9721 53.856L66.9707 53.8574ZM56.0678 55.8013L56.0823 57.6988H50.0328V74.8864H45.753V57.6988H39.7121V55.8391C39.7121 54.8025 39.7353 53.9416 39.7644 53.9184C39.7876 53.8879 43.4621 53.8734 47.9234 53.8806L56.0446 53.9039L56.0678 55.8013Z" fill="currentColor" />
</svg>
