<svg
  id="svg"
  version="1.1"
  width="400"
  height="400"
  viewBox="0, 0, 400,400"
  xmlns="http://www.w3.org/2000/svg"
>
  <defs></defs>
  <g id="svgg" transform="matrix(0.557363, 0, 0, 0.557363, 86.973618, 84.053459)">
    <path
      id="path0"
      d="M 262.2 9.6 C 262.064 9.82 260.984 10 259.8 10 C 258.616 10 257.548 10.16 257.427 10.356 C 257.306 10.552 255.224 10.842 252.8 11 C 250.376 11.158 248.294 11.448 248.173 11.644 C 248.052 11.84 246.984 12 245.8 12 C 244.616 12 243.548 12.16 243.427 12.356 C 243.306 12.552 241.224 12.842 238.8 13 C 236.376 13.158 234.294 13.448 234.173 13.644 C 234.052 13.84 232.984 14 231.8 14 C 230.616 14 229.548 14.16 229.427 14.356 C 229.306 14.552 227.224 14.842 224.8 15 C 222.376 15.158 220.294 15.448 220.173 15.644 C 220.052 15.84 218.984 16 217.8 16 C 216.616 16 215.548 16.16 215.427 16.356 C 215.306 16.552 213.224 16.842 210.8 17 C 208.376 17.158 206.294 17.448 206.173 17.644 C 206.052 17.84 204.984 18 203.8 18 C 202.616 18 201.548 18.16 201.427 18.356 C 201.306 18.552 199.224 18.842 196.8 19 C 194.376 19.158 192.294 19.448 192.173 19.644 C 192.052 19.84 190.984 20 189.8 20 C 188.616 20 187.548 20.16 187.427 20.356 C 187.306 20.552 185.224 20.842 182.8 21 C 180.376 21.158 178.294 21.448 178.173 21.644 C 178.052 21.84 176.984 22 175.8 22 C 174.616 22 173.548 22.16 173.427 22.356 C 173.306 22.552 171.224 22.842 168.8 23 C 166.376 23.158 164.294 23.448 164.173 23.644 C 164.052 23.84 162.984 24 161.8 24 C 160.616 24 159.548 24.16 159.427 24.356 C 159.306 24.552 157.224 24.842 154.8 25 C 152.376 25.158 150.294 25.448 150.173 25.644 C 150.052 25.84 148.984 26 147.8 26 C 146.616 26 145.548 26.16 145.427 26.356 C 145.306 26.552 143.224 26.842 140.8 27 C 138.376 27.158 136.294 27.448 136.173 27.644 C 136.052 27.84 134.984 28 133.8 28 C 132.616 28 131.548 28.16 131.427 28.356 C 131.306 28.552 129.224 28.842 126.8 29 C 124.376 29.158 122.294 29.448 122.173 29.644 C 122.052 29.84 120.984 30 119.8 30 C 118.616 30 117.548 30.16 117.427 30.356 C 117.306 30.552 115.224 30.842 112.8 31 C 110.376 31.158 108.294 31.448 108.173 31.644 C 108.052 31.84 106.984 32 105.8 32 C 104.616 32 103.548 32.16 103.427 32.356 C 103.306 32.552 101.224 32.842 98.8 33 C 96.376 33.158 94.294 33.448 94.173 33.644 C 94.052 33.84 92.984 34 91.8 34 C 90.616 34 89.549 34.158 89.43 34.352 C 89.31 34.545 87.319 34.833 85.006 34.99 C 82.692 35.148 80.699 35.44 80.576 35.639 C 80.453 35.837 79.834 36 79.2 36 C 78.566 36 77.95 36.157 77.832 36.348 C 77.714 36.54 77.043 36.811 76.342 36.952 C 75.641 37.092 74.512 37.623 73.833 38.133 C 73.155 38.642 72.285 39.175 71.9 39.317 C 71.515 39.459 71.2 39.819 71.2 40.118 C 71.2 40.416 70.763 41.072 70.228 41.574 C 69.687 42.082 69.139 43.176 68.993 44.042 C 68.849 44.896 68.566 45.697 68.365 45.822 C 67.896 46.112 67.885 55.881 68.353 56.171 C 68.548 56.291 68.835 57.427 68.992 58.695 C 69.149 59.963 69.454 61.215 69.669 61.478 C 70.648 62.671 69.876 63.795 68 63.91 C 67.01 63.97 65.84 64.183 65.4 64.384 C 64.96 64.585 63.206 64.866 61.503 65.008 C 59.799 65.151 58.304 65.433 58.179 65.634 C 58.055 65.835 57.601 66 57.171 66 C 56.46 66 55.702 66.302 54 67.263 C 53.67 67.449 53.04 67.764 52.6 67.962 C 51.345 68.528 49.283 70.889 48.983 72.104 C 48.834 72.711 48.551 73.306 48.356 73.427 C 48.16 73.548 48 74.166 48 74.8 C 48 75.434 47.82 76.064 47.6 76.2 C 47.373 76.34 47.2 78.33 47.2 80.8 C 47.2 83.27 47.373 85.26 47.6 85.4 C 47.82 85.536 48 86.231 48 86.944 C 48 87.657 48.203 88.443 48.451 88.691 C 49.535 89.775 48.493 91.2 46.616 91.2 C 45.643 91.2 44.736 91.38 44.6 91.6 C 44.464 91.82 43.564 92 42.6 92 C 41.636 92 40.752 92.155 40.635 92.344 C 40.518 92.533 39.235 92.809 37.783 92.958 C 36.332 93.106 34.842 93.381 34.472 93.569 C 34.102 93.757 32.72 94.41 31.4 95.02 C 29.19 96.042 24.8 99.703 24.8 100.525 C 24.8 100.718 24.45 101.367 24.023 101.967 C 23.596 102.567 23.122 103.994 22.97 105.138 C 22.819 106.282 22.538 107.315 22.347 107.433 C 21.897 107.711 21.892 122.286 22.341 122.564 C 22.529 122.68 22.807 124.264 22.959 126.085 C 23.111 127.905 23.407 129.567 23.617 129.777 C 23.828 129.988 24 130.653 24 131.256 C 24 131.859 24.161 132.452 24.358 132.574 C 24.555 132.696 24.844 134.238 25 136 C 25.156 137.762 25.445 139.304 25.642 139.426 C 25.839 139.548 26 140.166 26 140.8 C 26 141.434 26.159 142.051 26.353 142.171 C 26.547 142.291 26.831 143.559 26.984 144.99 C 27.137 146.421 27.429 147.694 27.631 147.819 C 27.834 147.945 28 148.746 28 149.6 C 28 150.454 28.156 151.249 28.347 151.368 C 28.539 151.486 28.819 152.842 28.971 154.382 C 29.122 155.922 29.416 157.286 29.623 157.414 C 29.83 157.542 30 158.256 30 159 C 30 159.744 30.17 160.458 30.377 160.586 C 30.584 160.714 30.878 162.078 31.029 163.618 C 31.181 165.158 31.461 166.514 31.653 166.632 C 31.844 166.751 32 167.546 32 168.4 C 32 169.254 32.166 170.055 32.369 170.181 C 32.571 170.306 32.863 171.579 33.016 173.01 C 33.169 174.441 33.453 175.709 33.647 175.829 C 33.841 175.949 34 176.746 34 177.6 C 34 178.454 34.17 179.258 34.377 179.386 C 34.584 179.514 34.878 180.878 35.029 182.418 C 35.181 183.958 35.461 185.314 35.653 185.432 C 35.844 185.551 36 186.166 36 186.8 C 36 187.434 36.165 188.055 36.366 188.179 C 36.567 188.304 36.859 189.757 37.014 191.408 C 37.168 193.06 37.454 194.51 37.648 194.629 C 37.841 194.749 38 195.366 38 196 C 38 196.634 38.156 197.249 38.347 197.368 C 38.539 197.486 38.819 198.842 38.971 200.382 C 39.122 201.922 39.416 203.286 39.623 203.414 C 39.83 203.542 40 204.256 40 205 C 40 205.744 40.156 206.449 40.347 206.568 C 40.539 206.686 40.819 208.042 40.971 209.582 C 41.122 211.122 41.416 212.486 41.623 212.614 C 41.83 212.742 42 213.546 42 214.4 C 42 215.254 42.166 216.055 42.369 216.181 C 42.571 216.306 42.863 217.579 43.016 219.01 C 43.169 220.441 43.453 221.709 43.647 221.829 C 43.841 221.949 44 222.746 44 223.6 C 44 224.454 44.17 225.258 44.377 225.386 C 44.584 225.514 44.878 226.878 45.029 228.418 C 45.181 229.958 45.461 231.314 45.653 231.432 C 45.844 231.551 46 232.166 46 232.8 C 46 233.434 46.165 234.055 46.366 234.179 C 46.567 234.304 46.859 235.757 47.014 237.408 C 47.168 239.06 47.454 240.51 47.648 240.629 C 47.841 240.749 48 241.366 48 242 C 48 242.634 48.159 243.251 48.352 243.371 C 48.546 243.49 48.832 244.94 48.986 246.592 C 49.141 248.243 49.433 249.696 49.634 249.821 C 49.835 249.945 50 250.566 50 251.2 C 50 251.834 50.156 252.449 50.347 252.568 C 50.539 252.686 50.819 254.042 50.971 255.582 C 51.122 257.122 51.416 258.486 51.623 258.614 C 51.83 258.742 52 259.546 52 260.4 C 52 261.254 52.159 262.051 52.353 262.171 C 52.547 262.291 52.831 263.559 52.984 264.99 C 53.137 266.421 53.429 267.694 53.631 267.819 C 53.834 267.945 54 268.746 54 269.6 C 54 270.454 54.17 271.258 54.377 271.386 C 54.584 271.514 54.878 272.878 55.029 274.418 C 55.181 275.958 55.461 277.314 55.653 277.432 C 55.844 277.551 56 278.256 56 279 C 56 279.744 56.17 280.458 56.377 280.586 C 56.584 280.714 56.878 282.078 57.029 283.618 C 57.181 285.158 57.461 286.514 57.653 286.632 C 57.844 286.751 58 287.366 58 288 C 58 288.634 58.159 289.251 58.352 289.371 C 58.546 289.49 58.832 290.94 58.986 292.592 C 59.141 294.243 59.433 295.696 59.634 295.821 C 59.835 295.945 60 296.566 60 297.2 C 60 297.834 60.156 298.449 60.347 298.568 C 60.539 298.686 60.819 300.042 60.971 301.582 C 61.122 303.122 61.416 304.486 61.623 304.614 C 61.83 304.742 62 305.546 62 306.4 C 62 307.254 62.159 308.051 62.353 308.171 C 62.547 308.291 62.831 309.559 62.984 310.99 C 63.137 312.421 63.429 313.694 63.631 313.819 C 63.834 313.945 64 314.746 64 315.6 C 64 316.454 64.156 317.249 64.347 317.368 C 64.539 317.486 64.819 318.842 64.971 320.382 C 65.122 321.922 65.416 323.286 65.623 323.414 C 65.83 323.542 66 324.256 66 325 C 66 325.744 66.17 326.458 66.377 326.586 C 66.584 326.714 66.878 328.078 67.029 329.618 C 67.181 331.158 67.461 332.514 67.653 332.632 C 67.844 332.751 68 333.546 68 334.4 C 68 335.254 68.166 336.055 68.369 336.181 C 68.571 336.306 68.863 337.579 69.016 339.01 C 69.169 340.441 69.453 341.709 69.647 341.829 C 69.841 341.949 70 342.566 70 343.2 C 70 343.834 70.161 344.452 70.358 344.574 C 70.555 344.696 70.844 346.238 71 348 C 71.156 349.762 71.445 351.304 71.642 351.426 C 71.839 351.548 72 352.166 72 352.8 C 72 353.434 72.159 354.051 72.353 354.171 C 72.547 354.291 72.831 355.559 72.984 356.99 C 73.137 358.421 73.429 359.694 73.631 359.819 C 73.834 359.945 74 360.746 74 361.6 C 74 362.454 74.156 363.249 74.347 363.368 C 74.539 363.486 74.819 364.842 74.971 366.382 C 75.122 367.922 75.416 369.286 75.623 369.414 C 75.83 369.542 76 370.166 76 370.8 C 76 371.434 76.164 372.054 76.365 372.178 C 76.566 372.303 76.852 373.122 77 374 C 77.148 374.878 77.434 375.697 77.635 375.822 C 77.836 375.946 78 376.425 78 376.886 C 78 377.347 78.45 378.314 79 379.036 C 79.55 379.757 80 380.5 80 380.687 C 80 381.148 83.955 384.864 85.2 385.573 C 87.423 386.838 88.231 387.195 88.876 387.198 C 89.248 387.199 89.664 387.38 89.8 387.6 C 89.936 387.82 90.541 388 91.144 388 C 91.747 388 92.43 388.19 92.663 388.423 C 93.232 388.992 109.175 388.985 109.745 388.415 C 109.973 388.187 110.833 388 111.656 388 C 112.479 388 113.251 387.841 113.371 387.648 C 113.49 387.454 114.94 387.168 116.592 387.014 C 118.243 386.859 119.696 386.567 119.821 386.366 C 119.945 386.165 120.566 386 121.2 386 C 121.834 386 122.449 385.844 122.568 385.653 C 122.686 385.461 124.042 385.181 125.582 385.029 C 127.122 384.878 128.486 384.584 128.614 384.377 C 128.742 384.17 129.546 384 130.4 384 C 131.254 384 132.051 383.841 132.171 383.647 C 132.291 383.453 133.559 383.169 134.99 383.016 C 136.421 382.863 137.694 382.571 137.819 382.369 C 137.945 382.166 138.746 382 139.6 382 C 140.454 382 141.258 381.83 141.386 381.623 C 141.514 381.416 142.878 381.122 144.418 380.971 C 145.958 380.819 147.314 380.539 147.432 380.347 C 147.551 380.156 148.256 380 149 380 C 149.744 380 150.458 379.83 150.586 379.623 C 150.714 379.416 152.078 379.122 153.618 378.971 C 155.158 378.819 156.514 378.539 156.632 378.347 C 156.751 378.156 157.546 378 158.4 378 C 159.254 378 160.055 377.834 160.181 377.631 C 160.306 377.429 161.579 377.137 163.01 376.984 C 164.441 376.831 165.709 376.547 165.829 376.353 C 165.949 376.159 166.566 376 167.2 376 C 167.834 376 168.452 375.839 168.574 375.642 C 168.696 375.445 170.238 375.156 172 375 C 173.762 374.844 175.304 374.555 175.426 374.358 C 175.548 374.161 176.166 374 176.8 374 C 177.434 374 178.051 373.841 178.171 373.647 C 178.291 373.453 179.559 373.169 180.99 373.016 C 182.421 372.863 183.694 372.571 183.819 372.369 C 183.945 372.166 184.746 372 185.6 372 C 186.454 372 187.249 371.844 187.368 371.653 C 187.486 371.461 188.842 371.181 190.382 371.029 C 191.922 370.878 193.286 370.584 193.414 370.377 C 193.542 370.17 194.256 370 195 370 C 195.744 370 196.458 369.83 196.586 369.623 C 196.714 369.416 198.078 369.122 199.618 368.971 C 201.158 368.819 202.514 368.539 202.632 368.347 C 202.751 368.156 203.546 368 204.4 368 C 205.254 368 206.055 367.834 206.181 367.631 C 206.306 367.429 207.579 367.137 209.01 366.984 C 210.441 366.831 211.709 366.547 211.829 366.353 C 211.949 366.159 212.746 366 213.6 366 C 214.454 366 215.258 365.83 215.386 365.623 C 215.514 365.416 216.878 365.122 218.418 364.971 C 219.958 364.819 221.314 364.539 221.432 364.347 C 221.551 364.156 222.166 364 222.8 364 C 223.434 364 224.055 363.835 224.179 363.634 C 224.304 363.433 225.757 363.141 227.408 362.986 C 229.06 362.832 230.51 362.546 230.629 362.352 C 230.749 362.159 231.366 362 232 362 C 232.634 362 233.249 361.844 233.368 361.653 C 233.486 361.461 234.842 361.181 236.382 361.029 C 237.922 360.878 239.286 360.584 239.414 360.377 C 239.542 360.17 240.256 360 241 360 C 241.744 360 242.449 359.844 242.568 359.653 C 242.686 359.461 244.042 359.181 245.582 359.029 C 247.122 358.878 248.486 358.584 248.614 358.377 C 248.742 358.17 249.546 358 250.4 358 C 251.254 358 252.051 357.841 252.171 357.647 C 252.291 357.453 253.559 357.169 254.99 357.016 C 256.421 356.863 257.694 356.571 257.819 356.369 C 257.945 356.166 258.746 356 259.6 356 C 260.454 356 261.258 355.83 261.386 355.623 C 261.514 355.416 262.878 355.122 264.418 354.971 C 265.958 354.819 267.314 354.539 267.432 354.347 C 267.551 354.156 268.256 354 269 354 C 269.744 354 270.458 353.83 270.586 353.623 C 270.714 353.416 272.078 353.122 273.618 352.971 C 275.158 352.819 276.514 352.539 276.632 352.347 C 276.751 352.156 277.366 352 278 352 C 278.634 352 279.251 351.841 279.371 351.648 C 279.49 351.454 280.94 351.168 282.592 351.014 C 284.243 350.859 285.696 350.567 285.821 350.366 C 285.945 350.165 286.566 350 287.2 350 C 287.834 350 288.449 349.844 288.568 349.653 C 288.686 349.461 290.042 349.181 291.582 349.029 C 293.122 348.878 294.486 348.584 294.614 348.377 C 294.742 348.17 295.546 348 296.4 348 C 297.254 348 298.051 347.841 298.171 347.647 C 298.291 347.453 299.559 347.169 300.99 347.016 C 302.421 346.863 303.694 346.571 303.819 346.369 C 303.945 346.166 304.746 346 305.6 346 C 306.454 346 307.249 345.844 307.368 345.653 C 307.486 345.461 308.842 345.181 310.382 345.029 C 311.922 344.878 313.286 344.584 313.414 344.377 C 313.542 344.17 314.166 344 314.8 344 C 315.434 344 316.048 343.845 316.165 343.656 C 316.282 343.467 317.148 343.205 318.089 343.074 C 319.812 342.834 323.951 340.93 325.194 339.806 C 325.562 339.472 326.04 339.2 326.257 339.2 C 326.877 339.2 328.68 337.103 329.008 336 C 329.171 335.45 329.67 334.482 330.116 333.849 C 330.562 333.216 331.012 331.817 331.115 330.741 C 331.219 329.664 331.46 328.686 331.652 328.568 C 332.115 328.282 332.103 313.711 331.639 313.424 C 331.441 313.302 331.153 312.121 331 310.8 C 330.847 309.479 330.559 308.298 330.361 308.176 C 330.162 308.053 330 307.549 330 307.056 C 330 306.563 329.829 305.989 329.62 305.78 C 327.482 303.639 329.038 301.492 333.109 300.967 C 334.269 300.817 335.315 300.538 335.433 300.347 C 335.551 300.156 336.042 299.999 336.524 299.998 C 338.491 299.995 343.32 297.043 344.045 295.4 C 344.239 294.96 344.551 294.33 344.737 294 C 345.698 292.298 346 291.54 346 290.829 C 346 290.399 346.18 289.936 346.4 289.8 C 346.629 289.659 346.8 287.604 346.8 285 C 346.8 282.396 346.629 280.341 346.4 280.2 C 346.18 280.064 346 279.254 346 278.4 C 346 277.546 345.836 276.746 345.635 276.622 C 345.434 276.497 345.142 275.632 344.986 274.698 C 344.83 273.764 344.336 272.482 343.888 271.849 L 343.074 270.699 L 344.022 269.984 C 344.637 269.52 346.067 269.171 348.087 268.992 C 349.802 268.841 351.304 268.555 351.426 268.358 C 351.548 268.161 352.166 268 352.8 268 C 353.434 268 354.048 267.845 354.165 267.656 C 354.282 267.467 355.148 267.206 356.089 267.076 C 359.961 266.543 364.495 262.63 364.979 259.402 C 365.126 258.421 365.416 257.514 365.623 257.386 C 366.097 257.093 366.125 247.724 365.653 247.433 C 365.462 247.315 365.183 246.298 365.034 245.174 C 364.885 244.05 364.563 242.741 364.319 242.265 C 363.457 240.585 363.299 240.16 363.028 238.787 C 362.769 237.476 362.32 236.226 361.581 234.749 C 361.401 234.391 361.127 233.401 360.972 232.549 C 360.816 231.697 360.379 230.55 360 230 C 359.621 229.45 359.184 228.303 359.028 227.451 C 358.873 226.599 358.599 225.609 358.419 225.251 C 357.681 223.777 357.232 222.525 356.975 221.227 C 356.826 220.472 356.377 219.271 355.976 218.557 C 355.575 217.844 355.126 216.615 354.978 215.826 C 354.83 215.037 354.55 214.293 354.355 214.172 C 354.16 214.051 354 213.524 354 213 C 354 212.476 353.84 211.949 353.645 211.828 C 353.45 211.707 353.17 210.963 353.022 210.174 C 352.874 209.385 352.425 208.156 352.024 207.443 C 351.623 206.729 351.174 205.528 351.025 204.773 C 350.768 203.475 350.319 202.223 349.581 200.749 C 349.401 200.391 349.127 199.401 348.972 198.549 C 348.816 197.697 348.379 196.55 348 196 C 347.621 195.45 347.184 194.303 347.028 193.451 C 346.873 192.599 346.599 191.609 346.419 191.251 C 345.681 189.777 345.232 188.525 344.975 187.227 C 344.826 186.472 344.377 185.271 343.976 184.557 C 343.575 183.844 343.126 182.615 342.978 181.826 C 342.83 181.037 342.55 180.293 342.355 180.172 C 342.16 180.051 342 179.524 342 179 C 342 178.476 341.84 177.949 341.645 177.828 C 341.45 177.707 341.17 176.963 341.022 176.174 C 340.874 175.385 340.425 174.156 340.024 173.443 C 339.623 172.729 339.174 171.528 339.025 170.773 C 338.768 169.475 338.319 168.223 337.581 166.749 C 337.401 166.391 337.127 165.401 336.972 164.549 C 336.816 163.697 336.379 162.55 336 162 C 335.621 161.45 335.184 160.303 335.028 159.451 C 334.873 158.599 334.599 157.609 334.419 157.251 C 333.68 155.774 333.231 154.524 332.972 153.213 C 332.822 152.45 332.556 151.55 332.383 151.213 C 331.563 149.619 330.8 147.62 330.8 147.063 C 330.8 146.724 330.62 146.336 330.4 146.2 C 330.18 146.064 330 145.524 330 145 C 330 144.476 329.836 143.946 329.635 143.822 C 329.434 143.697 329.148 142.878 329 142 C 328.852 141.122 328.566 140.303 328.365 140.178 C 328.164 140.054 327.994 139.558 327.987 139.076 C 327.98 138.594 327.71 137.851 327.387 137.424 C 327.064 136.996 326.8 136.319 326.8 135.918 C 326.8 135.517 326.62 134.832 326.4 134.395 C 325.421 132.449 325.286 132.096 325.028 130.787 C 324.752 129.395 324.626 129.041 323.441 126.34 C 323.088 125.536 322.8 124.679 322.8 124.434 C 322.8 124.189 322.641 123.677 322.447 123.295 C 321.695 121.817 321.236 120.546 320.972 119.213 C 320.822 118.45 320.556 117.55 320.383 117.213 C 319.563 115.619 318.8 113.62 318.8 113.063 C 318.8 112.724 318.62 112.336 318.4 112.2 C 318.18 112.064 318 111.524 318 111 C 318 110.476 317.836 109.946 317.635 109.822 C 317.434 109.697 317.148 108.878 317 108 C 316.852 107.122 316.566 106.303 316.365 106.178 C 316.164 106.054 315.994 105.558 315.987 105.076 C 315.98 104.594 315.71 103.851 315.387 103.424 C 315.064 102.996 314.8 102.319 314.8 101.918 C 314.8 101.225 314.673 100.883 313.713 98.987 C 313.487 98.54 313.178 97.55 313.028 96.787 C 312.752 95.395 312.626 95.041 311.441 92.34 C 311.088 91.536 310.8 90.679 310.8 90.434 C 310.8 90.189 310.641 89.677 310.447 89.295 C 309.695 87.817 309.236 86.546 308.972 85.213 C 308.822 84.45 308.513 83.46 308.287 83.013 C 307.327 81.117 307.2 80.775 307.2 80.082 C 307.2 79.681 306.936 79.004 306.613 78.576 C 306.29 78.149 306.02 77.406 306.013 76.924 C 306.006 76.442 305.836 75.946 305.635 75.822 C 305.434 75.697 305.148 74.878 305 74 C 304.852 73.122 304.566 72.303 304.365 72.178 C 304.164 72.054 304 71.524 304 71 C 304 70.476 303.82 69.936 303.6 69.8 C 303.38 69.664 303.2 69.276 303.2 68.937 C 303.2 68.38 302.437 66.381 301.617 64.787 C 301.444 64.45 301.178 63.55 301.028 62.787 C 300.764 61.454 300.305 60.183 299.553 58.705 C 299.359 58.323 299.2 57.811 299.2 57.566 C 299.2 57.321 298.912 56.464 298.559 55.66 C 297.374 52.959 297.248 52.605 296.972 51.213 C 296.714 49.904 296.579 49.551 295.6 47.605 C 295.38 47.168 295.2 46.483 295.2 46.082 C 295.2 45.681 294.936 45.004 294.613 44.576 C 294.29 44.149 294.02 43.406 294.013 42.924 C 294.006 42.442 293.836 41.946 293.635 41.822 C 293.434 41.697 293.148 40.878 293 40 C 292.852 39.122 292.566 38.303 292.365 38.178 C 292.164 38.054 292 37.524 292 37 C 292 36.476 291.82 35.936 291.6 35.8 C 291.38 35.664 291.2 35.276 291.2 34.937 C 291.2 34.38 290.437 32.381 289.617 30.787 C 289.444 30.45 289.178 29.55 289.028 28.787 C 288.764 27.454 288.305 26.183 287.553 24.705 C 287.359 24.323 287.2 23.811 287.2 23.566 C 287.2 23.321 286.93 22.509 286.6 21.76 C 286.27 21.012 285.718 19.725 285.373 18.9 C 285.028 18.075 284.538 16.978 284.285 16.461 C 283.545 14.957 279.341 11.295 278.02 11.004 C 277.354 10.858 276.706 10.572 276.581 10.369 C 276.455 10.166 275.834 10 275.2 10 C 274.566 10 273.936 9.82 273.8 9.6 C 273.654 9.364 271.27 9.2 268 9.2 C 264.73 9.2 262.346 9.364 262.2 9.6 M 273 14 C 273.136 14.22 273.597 14.4 274.024 14.4 C 274.451 14.4 274.8 14.58 274.8 14.8 C 274.8 15.02 275.047 15.2 275.35 15.2 C 276.719 15.2 280.111 19.325 280.601 21.587 C 280.766 22.35 281.045 23.25 281.221 23.587 C 281.891 24.876 282.8 27.65 282.8 28.408 C 282.8 28.844 282.98 29.2 283.2 29.2 C 283.42 29.2 283.6 29.639 283.6 30.176 C 283.6 30.713 283.76 31.251 283.955 31.372 C 284.15 31.493 284.432 32.245 284.582 33.045 C 284.732 33.844 285.051 34.881 285.29 35.349 C 286.135 37.002 286.301 37.44 286.6 38.8 C 286.766 39.556 287.059 40.495 287.251 40.887 C 287.443 41.279 287.757 41.921 287.949 42.313 C 288.141 42.705 288.434 43.644 288.6 44.4 C 288.766 45.156 289.059 46.095 289.251 46.487 C 289.443 46.879 289.757 47.521 289.949 47.913 C 290.141 48.305 290.434 49.244 290.6 50 C 290.766 50.756 291.045 51.65 291.221 51.987 C 291.879 53.253 292.8 56.044 292.8 56.775 C 292.8 57.192 292.935 57.593 293.1 57.667 C 293.486 57.838 294.805 61.583 294.802 62.5 C 294.801 62.885 294.98 63.2 295.2 63.2 C 295.42 63.2 295.6 63.639 295.6 64.176 C 295.6 64.713 295.76 65.251 295.955 65.372 C 296.15 65.493 296.432 66.245 296.582 67.045 C 296.845 68.445 296.989 68.839 297.887 70.613 C 298.113 71.06 298.434 72.044 298.6 72.8 C 298.766 73.556 299.059 74.495 299.251 74.887 C 299.443 75.279 299.757 75.921 299.949 76.313 C 300.141 76.705 300.434 77.644 300.6 78.4 C 300.766 79.156 301.087 80.14 301.313 80.587 C 302.268 82.473 302.397 82.841 302.644 84.383 C 302.786 85.272 303.059 86 303.251 86 C 303.443 86 303.6 86.339 303.6 86.754 C 303.6 87.169 303.869 88.024 304.198 88.654 C 304.526 89.284 304.796 90.19 304.798 90.667 C 304.799 91.143 304.935 91.593 305.1 91.667 C 305.486 91.838 306.805 95.583 306.802 96.5 C 306.801 96.885 306.98 97.2 307.2 97.2 C 307.42 97.2 307.6 97.639 307.6 98.176 C 307.6 98.713 307.76 99.251 307.955 99.372 C 308.15 99.493 308.432 100.245 308.582 101.045 C 308.845 102.445 308.989 102.839 309.887 104.613 C 310.113 105.06 310.434 106.044 310.6 106.8 C 310.766 107.556 311.059 108.495 311.251 108.887 C 311.443 109.279 311.768 109.938 311.973 110.351 C 312.178 110.764 312.474 111.799 312.63 112.651 C 312.787 113.503 313.026 114.29 313.161 114.4 C 313.532 114.702 314.804 118.501 314.802 119.3 C 314.801 119.685 314.98 120 315.2 120 C 315.42 120 315.6 120.439 315.6 120.976 C 315.6 121.513 315.76 122.051 315.955 122.172 C 316.15 122.293 316.432 123.045 316.582 123.845 C 316.732 124.644 317.022 125.636 317.227 126.049 C 317.432 126.462 317.757 127.121 317.949 127.513 C 318.141 127.905 318.434 128.844 318.6 129.6 C 318.766 130.356 319.087 131.34 319.313 131.787 C 320.268 133.673 320.397 134.041 320.644 135.583 C 320.786 136.472 321.059 137.2 321.251 137.2 C 321.443 137.2 321.6 137.549 321.6 137.976 C 321.6 138.403 321.76 138.851 321.955 138.972 C 322.15 139.093 322.432 139.845 322.582 140.645 C 322.732 141.444 323.009 142.391 323.197 142.749 C 323.881 144.048 324.8 146.835 324.8 147.608 C 324.8 148.044 324.98 148.4 325.2 148.4 C 325.42 148.4 325.6 148.739 325.6 149.154 C 325.6 149.569 325.869 150.424 326.198 151.054 C 326.526 151.684 326.796 152.605 326.798 153.1 C 326.799 153.595 326.98 154 327.2 154 C 327.42 154 327.6 154.439 327.6 154.976 C 327.6 155.513 327.76 156.051 327.955 156.172 C 328.15 156.293 328.432 157.045 328.582 157.845 C 328.732 158.644 329.022 159.636 329.227 160.049 C 329.432 160.462 329.757 161.121 329.949 161.513 C 330.141 161.905 330.434 162.844 330.6 163.6 C 330.766 164.356 331.059 165.295 331.251 165.687 C 331.443 166.079 331.777 166.752 331.992 167.183 C 332.208 167.613 332.501 168.693 332.644 169.583 C 332.786 170.472 333.059 171.2 333.251 171.2 C 333.443 171.2 333.6 171.549 333.6 171.976 C 333.6 172.403 333.76 172.851 333.955 172.972 C 334.15 173.093 334.432 173.845 334.582 174.645 C 334.732 175.444 335.009 176.391 335.197 176.749 C 335.881 178.048 336.8 180.835 336.8 181.608 C 336.8 182.044 336.98 182.4 337.2 182.4 C 337.42 182.4 337.6 182.839 337.6 183.376 C 337.6 183.913 337.76 184.451 337.955 184.572 C 338.15 184.693 338.432 185.445 338.582 186.245 C 338.732 187.044 339.022 188.036 339.227 188.449 C 339.432 188.862 339.757 189.521 339.949 189.913 C 340.141 190.305 340.434 191.244 340.6 192 C 340.766 192.756 341.059 193.695 341.251 194.087 C 341.443 194.479 341.757 195.121 341.949 195.513 C 342.141 195.905 342.434 196.844 342.6 197.6 C 342.766 198.356 343.059 199.295 343.251 199.687 C 343.443 200.079 343.777 200.752 343.992 201.183 C 344.208 201.613 344.501 202.693 344.644 203.583 C 344.786 204.472 345.059 205.2 345.251 205.2 C 345.443 205.2 345.6 205.65 345.6 206.2 C 345.6 206.75 345.757 207.2 345.949 207.2 C 346.141 207.2 346.419 207.96 346.568 208.888 C 346.716 209.816 346.966 210.671 347.122 210.788 C 347.517 211.082 348.804 214.846 348.802 215.7 C 348.801 216.085 348.98 216.4 349.2 216.4 C 349.42 216.4 349.6 216.839 349.6 217.376 C 349.6 217.913 349.76 218.451 349.955 218.572 C 350.15 218.693 350.432 219.445 350.582 220.245 C 350.732 221.044 351.022 222.036 351.227 222.449 C 351.432 222.862 351.757 223.521 351.949 223.913 C 352.141 224.305 352.434 225.244 352.6 226 C 352.766 226.756 353.059 227.695 353.251 228.087 C 353.443 228.479 353.757 229.121 353.949 229.513 C 354.141 229.905 354.434 230.844 354.6 231.6 C 354.766 232.356 355.045 233.25 355.221 233.587 C 355.891 234.876 356.8 237.65 356.8 238.408 C 356.8 238.844 356.98 239.2 357.2 239.2 C 357.42 239.2 357.6 239.639 357.6 240.176 C 357.6 240.713 357.76 241.251 357.955 241.372 C 358.15 241.493 358.432 242.245 358.582 243.045 C 358.732 243.844 359.051 244.881 359.29 245.349 C 359.529 245.817 359.877 246.513 360.062 246.895 C 360.856 248.528 360.257 253.891 359.179 254.8 C 359.048 254.91 358.84 255.276 358.716 255.614 C 358.383 256.521 355.477 258.415 353.726 258.865 C 352.212 259.254 351.387 259.427 345.6 260.567 C 343.95 260.892 340.681 261.556 338.335 262.041 L 334.07 262.925 L 335.095 265.163 C 336.229 267.636 336.293 267.795 337.768 271.808 C 338.336 273.353 338.8 274.898 338.8 275.242 C 338.8 275.585 338.926 275.993 339.08 276.147 C 339.643 276.71 340.788 281.043 340.785 282.6 C 340.78 285.656 337.566 290.399 335.5 290.4 C 335.115 290.4 334.8 290.547 334.8 290.726 C 334.8 291.017 332.068 291.583 327.4 292.258 C 326.52 292.386 325.62 292.632 325.4 292.806 C 325.18 292.979 323.782 293.25 322.294 293.408 C 320.806 293.565 319.491 293.853 319.371 294.047 C 319.251 294.241 318.454 294.4 317.6 294.4 C 316.746 294.4 315.949 294.559 315.829 294.752 C 315.71 294.946 314.26 295.232 312.608 295.386 C 310.957 295.541 309.504 295.833 309.379 296.034 C 309.255 296.235 308.544 296.4 307.8 296.4 C 307.056 296.4 306.345 296.565 306.221 296.766 C 306.096 296.967 304.643 297.259 302.992 297.414 C 301.34 297.568 299.89 297.854 299.771 298.048 C 299.651 298.241 298.944 298.4 298.2 298.4 C 297.456 298.4 296.749 298.559 296.629 298.752 C 296.51 298.946 295.06 299.232 293.408 299.386 C 291.757 299.541 290.304 299.833 290.179 300.034 C 290.055 300.235 289.333 300.4 288.576 300.4 C 287.819 300.4 287.2 300.561 287.2 300.758 C 287.2 300.955 285.759 301.244 283.998 301.4 C 282.237 301.556 280.696 301.845 280.574 302.042 C 280.452 302.239 279.643 302.4 278.776 302.4 C 277.909 302.4 277.2 302.559 277.2 302.753 C 277.2 302.947 275.85 303.233 274.2 303.387 C 272.55 303.542 271.2 303.833 271.2 304.034 C 271.2 304.566 269.695 304.484 269.514 303.943 C 269.346 303.438 267.65 304.152 267.1 304.96 C 266.891 305.267 266.693 305.234 266.445 304.849 C 266.225 304.507 265.884 304.424 265.55 304.631 C 265.254 304.814 264.437 304.914 263.734 304.854 C 262.868 304.779 262.19 305.01 261.628 305.572 C 261.173 306.027 260.8 306.22 260.8 306 C 260.8 305.78 260.44 305.6 260 305.6 C 259.56 305.6 259.2 305.76 259.2 305.956 C 259.2 306.151 258.975 306.291 258.7 306.266 C 257.432 306.153 253.2 306.92 253.2 307.263 C 253.2 307.474 253.062 307.562 252.893 307.458 C 252.725 307.354 251.69 307.446 250.593 307.663 C 249.497 307.88 247.34 308.298 245.8 308.593 C 241.745 309.368 232.498 311.215 230.4 311.668 C 229.41 311.882 227.34 312.309 225.8 312.617 C 224.26 312.925 221.56 313.469 219.8 313.826 C 218.04 314.184 215.88 314.616 215 314.787 C 214.12 314.958 211.69 315.466 209.6 315.916 C 207.51 316.366 205.26 316.845 204.6 316.981 C 202.518 317.408 197.472 318.41 195.6 318.768 C 194.61 318.957 190.29 319.86 186 320.773 C 181.71 321.687 175.14 323.052 171.4 323.807 C 167.66 324.562 161.99 325.733 158.8 326.411 C 155.61 327.088 151.74 327.895 150.2 328.203 C 148.66 328.511 143.454 329.581 138.631 330.582 C 122.901 333.844 118.721 332.316 115.943 322.292 C 114.894 318.505 112.895 311.123 112.128 308.2 C 111.782 306.88 111.359 305.62 111.188 305.4 C 111.017 305.18 110.749 303.963 110.592 302.695 C 110.435 301.427 110.148 300.291 109.953 300.171 C 109.759 300.051 109.6 299.453 109.6 298.843 C 109.6 298.233 109.465 297.599 109.3 297.435 C 109.135 297.27 108.79 296.115 108.534 294.868 C 108.277 293.621 107.861 291.88 107.608 291 C 107.088 289.189 106.059 285.102 105.744 283.6 C 105.629 283.05 105.427 282.33 105.294 282 C 105.074 281.451 104.434 278.803 103.795 275.8 C 103.655 275.14 103.396 274.24 103.221 273.8 C 103.046 273.36 102.59 271.56 102.207 269.8 C 101.825 268.04 101.377 266.24 101.212 265.8 C 101.047 265.36 100.601 263.65 100.221 262 C 99.841 260.35 99.368 258.46 99.171 257.8 C 98.974 257.14 98.441 255.07 97.986 253.2 C 97.532 251.33 95.088 241.61 92.556 231.6 C 83.954 197.589 73.52 156.214 72.533 152.2 C 71.992 150 71.38 147.57 71.171 146.8 C 70.963 146.03 70.535 144.32 70.221 143 C 69.907 141.68 69.457 139.88 69.221 139 C 68.985 138.12 68.54 136.32 68.231 135 C 67.923 133.68 58.753 96.76 58.316 95 C 57.879 93.24 57.377 91.17 57.2 90.4 C 56.522 87.441 55.17 82.146 54.794 80.972 C 53.632 77.348 56.06 71.284 58.7 71.213 C 58.975 71.206 59.2 71.049 59.2 70.864 C 59.2 70.346 61.866 69.621 65.4 69.177 C 67.16 68.957 69.68 68.614 71 68.415 C 72.32 68.217 74.39 67.941 75.6 67.802 C 79.808 67.318 80.014 67.086 78.805 64.2 C 78.62 63.76 78.161 62.05 77.785 60.4 C 77.408 58.75 76.963 57.04 76.794 56.6 C 72.623 45.682 76.169 40.23 88 39.375 C 90.09 39.224 91.98 38.96 92.2 38.79 C 92.42 38.619 93.59 38.377 94.8 38.253 C 99.997 37.719 105.845 36.936 106.4 36.7 C 106.73 36.559 107.9 36.349 109 36.233 C 114.403 35.663 119.862 34.929 120.4 34.7 C 120.73 34.559 121.9 34.349 123 34.233 C 128.403 33.663 133.862 32.929 134.4 32.7 C 134.73 32.559 135.9 32.349 137 32.233 C 142.403 31.663 147.862 30.929 148.4 30.7 C 148.73 30.559 149.9 30.349 151 30.233 C 156.403 29.663 161.862 28.929 162.4 28.7 C 162.73 28.559 163.9 28.348 165 28.231 C 166.1 28.114 168.89 27.817 171.2 27.571 C 173.51 27.326 175.76 26.97 176.2 26.782 C 176.64 26.593 177.9 26.344 179 26.229 C 183.567 25.751 189.44 24.933 190 24.697 C 190.33 24.558 191.5 24.356 192.6 24.247 C 196.864 23.827 203.428 22.933 204 22.695 C 204.33 22.557 205.5 22.349 206.6 22.233 C 212.003 21.663 217.462 20.929 218 20.7 C 218.33 20.559 219.5 20.349 220.6 20.233 C 226.003 19.663 231.462 18.929 232 18.7 C 232.33 18.559 233.5 18.349 234.6 18.233 C 240.003 17.663 245.462 16.929 246 16.7 C 246.33 16.559 247.5 16.349 248.6 16.233 C 255.884 15.464 259.579 14.96 259.836 14.7 C 260 14.535 261.048 14.397 262.167 14.394 C 263.285 14.391 264.47 14.213 264.8 14 C 265.594 13.487 272.683 13.487 273 14"
      stroke="none"
      fill="currentColor"
      fill-rule="evenodd"
    ></path>
    <path
      id="path4"
      d="M 253.6 174.994 C 251.84 175.304 249.41 175.737 248.2 175.956 C 240.296 177.387 238.589 177.694 236.8 178.008 C 235.7 178.201 232.28 178.825 229.2 179.396 C 226.12 179.966 222.16 180.685 220.4 180.995 C 218.64 181.305 216.21 181.737 215 181.956 C 204.424 183.87 202.976 184.129 199.156 184.786 C 193.54 185.753 191.786 189.8 194.21 196.2 C 194.893 198.004 195.8 201.341 195.8 202.051 C 195.8 202.469 195.965 203.123 196.167 203.505 C 196.497 204.131 196.916 205.547 198.265 210.6 C 198.5 211.48 198.843 212.65 199.026 213.2 C 199.209 213.75 200.835 219.51 202.639 226 C 207.129 242.154 208.826 243.96 217.4 241.72 C 218.39 241.461 220.82 240.955 222.8 240.594 C 224.78 240.234 227.12 239.775 228 239.576 C 228.88 239.376 233.47 238.482 238.2 237.588 C 242.93 236.694 248.96 235.538 251.6 235.019 C 254.24 234.5 256.85 233.989 257.4 233.883 C 259.598 233.459 266.873 232.057 268 231.839 C 268.66 231.712 271.54 231.14 274.4 230.568 C 277.26 229.996 280.95 229.269 282.6 228.953 C 286.26 228.252 289.469 227.631 291.6 227.21 C 292.48 227.037 294.511 226.656 296.113 226.364 C 300.246 225.61 303.292 222.328 302.442 219.543 C 301.637 216.901 298.156 205.965 296.796 201.8 C 295.862 198.94 294.521 194.71 293.818 192.4 C 293.114 190.09 292.121 186.94 291.612 185.4 C 291.103 183.86 290.211 181.07 289.63 179.2 C 288.058 174.135 287.441 172.935 285.847 171.851 C 283.958 170.566 280.357 169.577 279.755 170.178 M 283.244 174.976 C 283.755 175.334 284.488 176.889 285.178 179.076 C 285.79 181.014 286.615 183.59 287.011 184.8 C 287.408 186.01 288.573 189.7 289.6 193 C 290.626 196.3 292.335 201.79 293.397 205.2 C 294.459 208.61 295.643 212.48 296.029 213.8 C 296.415 215.12 296.881 216.398 297.065 216.64 C 299.207 219.465 297.622 221.67 292.8 222.575 C 290.82 222.947 287.49 223.589 285.4 224.001 C 283.31 224.413 278.63 225.307 275 225.989 C 271.37 226.67 267.68 227.391 266.8 227.59 C 265.92 227.789 262.68 228.427 259.6 229.008 C 254.147 230.037 246.038 231.593 242 232.385 C 240.9 232.601 238.56 233.055 236.8 233.394 C 235.04 233.733 232.7 234.184 231.6 234.397 C 230.5 234.61 228.07 235.071 226.2 235.421 C 224.33 235.771 222.08 236.218 221.2 236.414 C 210.195 238.87 211.207 239.648 207.401 225.8 C 207.22 225.14 205.961 220.73 204.605 216 C 203.248 211.27 201.991 206.86 201.812 206.2 C 201.633 205.54 201.181 203.92 200.808 202.6 C 200.436 201.28 199.983 199.66 199.803 199 C 199.622 198.34 199.008 196.283 198.437 194.43 C 197.204 190.421 197.494 189.472 200.072 189.082 C 200.913 188.955 203.13 188.561 205 188.207 C 206.87 187.853 209.3 187.405 210.4 187.21 C 212.433 186.851 213.599 186.641 227.4 184.143 C 229.27 183.804 231.61 183.377 232.6 183.193 C 234.221 182.893 237.391 182.316 243.8 181.156 C 245.01 180.937 247.53 180.481 249.4 180.143 C 251.27 179.804 253.61 179.377 254.6 179.193 C 256.633 178.816 262.06 177.831 271.4 176.144 C 273.27 175.806 275.97 175.3 277.4 175.019 C 280.986 174.314 282.286 174.305 283.244 174.976 M 354.829 185.2 C 354.976 185.75 355.264 186.47 355.467 186.8 C 355.725 187.217 355.757 187.095 355.571 186.4 C 355.424 185.85 355.136 185.13 354.933 184.8 C 354.675 184.383 354.643 184.505 354.829 185.2 M 264.903 186.641 C 262.305 187.011 261.633 189.166 263.526 191.059 C 263.677 191.21 263.8 191.666 263.8 192.072 C 263.8 192.478 263.969 193.123 264.177 193.505 C 264.384 193.887 264.852 195.28 265.217 196.6 C 265.581 197.92 266.028 199.36 266.209 199.8 C 267.352 202.582 267.305 202.643 263.438 203.35 C 261.484 203.708 259.596 204 259.243 204 C 257.786 204 258.712 205.102 261.595 206.8 C 265.854 209.308 267.3 210.224 268.658 211.274 C 269.459 211.893 270.237 212.4 270.386 212.4 C 270.535 212.4 271.822 213.232 273.247 214.248 C 274.671 215.265 275.874 216.03 275.918 215.948 C 276.474 214.939 277.207 213.568 278.994 210.2 C 280.161 208 281.921 204.796 282.904 203.08 C 285.033 199.367 285.018 199.338 281.307 199.997 C 279.708 200.281 277.852 200.593 277.183 200.69 L 275.966 200.868 L 274.839 197.134 C 270.984 184.361 271.614 185.481 268.6 186.038 M 213.414 211.2 C 213.621 211.97 214.073 213.59 214.419 214.8 C 214.765 216.01 215.243 217.72 215.482 218.6 C 215.72 219.48 216.159 220.971 216.458 221.914 C 216.756 222.857 217 223.856 217 224.134 C 217 225.717 218.002 226.844 219.2 226.608 C 219.86 226.478 221.75 226.185 223.4 225.956 C 227.108 225.442 227.191 225.36 226.449 222.954 C 226.118 221.879 225.196 218.84 224.4 216.2 C 223.605 213.56 222.764 210.908 222.531 210.307 C 221.659 208.051 222.421 207.845 224.717 209.715 C 225.891 210.671 228.099 212.327 229.625 213.395 C 231.151 214.464 232.893 215.789 233.496 216.34 C 234.099 216.891 234.641 217.265 234.702 217.171 C 235.151 216.479 238.222 209.847 238.764 208.4 C 239.135 207.41 239.772 206.16 240.18 205.622 L 240.921 204.644 L 241.419 206.422 C 241.693 207.4 242.341 209.509 242.859 211.108 C 243.376 212.708 243.8 214.285 243.8 214.614 C 243.8 214.942 243.965 215.523 244.166 215.905 C 244.368 216.287 244.863 217.695 245.266 219.033 L 246 221.466 L 249.2 220.939 C 255.342 219.928 255.096 220 254.867 219.274 C 254.75 218.903 254.387 217.7 254.061 216.6 C 253.547 214.868 252.091 210.048 248.625 198.6 C 248.159 197.06 247.41 194.585 246.961 193.1 C 246.032 190.031 246.293 190.13 241.437 191.009 M 363.467 209.6 C 363.725 210.017 363.757 209.895 363.571 209.2 C 363.424 208.65 363.136 207.93 362.933 207.6 C 362.675 207.183 362.643 207.305 362.829 208 M 365.467 215.2 C 365.725 215.617 365.757 215.495 365.571 214.8 C 365.424 214.25 365.136 213.53 364.933 213.2 C 364.675 212.783 364.643 212.905 364.829 213.6 M 373.467 238 C 373.725 238.417 373.757 238.295 373.571 237.6 C 373.424 237.05 373.136 236.33 372.933 236 C 372.675 235.583 372.643 235.705 372.829 236.4 M 375.467 243.6 C 375.725 244.017 375.757 243.895 375.571 243.2 C 375.424 242.65 375.136 241.93 374.933 241.6 C 374.675 241.183 374.643 241.305 374.829 242"
      stroke="none"
      fill="currentColor"
      fill-rule="evenodd"
    ></path>
  </g>
  <polyline style="stroke: currentColor; fill: none" points="258.526 122.149"></polyline>
  <polyline
    style="fill: currentColor"
    points="214.191 170.5 230.725 116.63 206.877 120.72 203.056 132.215 192.096 123.007 167.031 126.889 214.243 170.735"
  ></polyline>
  <polyline
    style="fill: currentColor; stroke-linejoin: round; stroke-linecap: round"
    points="215.046 195.181 208.24 192.802 203.727 193.492 206.093 202.081"
  ></polyline>
  <line
    style="stroke: currentColor; stroke-width: 3px"
    x1="130.403"
    y1="121.041"
    x2="162.276"
    y2="231.757"
  ></line>
  <line
    style="stroke-width: 3px; stroke: currentColor"
    x1="183.385"
    y1="246.114"
    x2="274.209"
    y2="231.129"
  ></line>
  <path style="fill: currentColor; stroke: currentColor" d="M 157.835 305.978"></path>
  <path
    style="fill: none; stroke: currentColor; stroke-width: 3px"
    d="M 162.147 231.296 C 162.147 231.296 165.457 242.975 165.632 243.488 C 165.904 244.287 166.438 247.347 167.647 247.932 C 170.265 249.199 172.171 248.284 172.681 248.189 C 173.317 248.071 184.53 245.897 184.53 245.879"
  ></path>
</svg>
