<svg width="189" height="26" viewBox="0 0 189 26" fill="none" xmlns="http://www.w3.org/2000/svg">
<g clip-path="url(#clip0)">
<path d="M107.316 8.97552L110.917 5.50682H105.662L103.875 8.97552H107.316ZM86.3567 24.9899H90.3247V19.0968L92.5385 16.8111L98.7537 24.9899H103.449L95.0196 14.3283L103.549 5.63097H98.7203L90.5586 14.0654H90.4584V14.1238L90.2913 14.2991V5.63097H86.3233L86.3567 24.9899ZM80.7095 14.3575H84.6776C84.2181 9.04124 79.6653 5.33887 73.3081 5.33887C66.7002 5.33887 61.9386 9.47209 61.9386 15.3068C61.9386 21.1415 66.7002 25.2747 73.3081 25.2747C79.657 25.2747 84.2181 21.6235 84.6776 16.2634H80.7095C80.3169 19.849 77.4766 22.1054 73.3081 22.1054C68.8137 22.1054 65.8732 19.4181 65.8732 15.3141C65.8732 11.2101 68.8137 8.52276 73.3081 8.52276C77.485 8.52276 80.2835 10.7792 80.7095 14.3648V14.3575ZM46.3337 5.60176V24.9899H60.3513V21.8133H50.3268V16.6066H60.3513V13.4301H50.3268V8.80756H60.3513V5.63097L46.3337 5.60176ZM24.8811 5.60176V24.9899H28.8492V16.6066H40.2438V24.9899H44.145V5.63097H40.2438V13.4301H28.8074V5.63097L24.8811 5.60176ZM19.1922 14.3648H23.1602C22.7008 9.04854 18.148 5.34617 11.7907 5.34617C5.13276 5.33887 0.371094 9.44288 0.371094 15.2849C0.371094 21.1269 5.13276 25.2528 11.749 25.2528C18.0895 25.2528 22.659 21.6016 23.1185 16.2415H19.1504C18.7578 19.8271 15.9092 22.0835 11.749 22.0835C7.24627 22.0835 4.30573 19.3962 4.30573 15.2922C4.30573 11.1882 7.24627 8.50085 11.749 8.50085C12.6748 8.45561 13.6017 8.57121 14.4761 8.84099C15.3506 9.11077 16.1551 9.52937 16.8434 10.0726C17.5316 10.6158 18.0899 11.2729 18.4858 12.0059C18.8818 12.7388 19.1077 13.5331 19.1504 14.3429" fill="#248773"/>
<path d="M114.058 14.9932V6.96045H120.307C123.481 6.96045 125.169 8.54509 125.169 11.006C125.169 13.467 123.498 15.0224 120.307 15.0224L114.058 14.9932ZM127.182 24.9904L120.039 16.2931H120.307C124.375 16.2931 126.856 14.1023 126.856 10.9768C126.856 7.85135 124.35 5.63139 120.307 5.63139H112.371V24.9904H114.041V16.2931H118.076L125.118 24.9904H127.182ZM136.872 4.18549L140.214 0.716797H137.967L135.46 4.18549H136.872ZM130.256 24.9904H142.093V23.6905H131.944V15.6577H142.093V14.3579H131.944V6.93124H142.093V5.63139H130.256V24.9904ZM161.065 24.9904H162.736V5.63139H161.065V22.4272L147.415 5.63139H145.744V24.9904H147.415V8.08504L161.065 24.9904ZM183.854 10.4438L178.006 21.8722H174.982L171.399 14.6573L173.963 13.6423L176.469 18.8051L181.281 9.4433L183.854 10.4438ZM189 15.2853C189 9.4433 184.238 5.31738 177.597 5.31738C170.956 5.31738 166.194 9.4433 166.194 15.2853C166.194 21.1273 170.931 25.2752 177.614 25.2752C184.297 25.2752 189 21.1784 189 15.2853Z" fill="#0077A3"/>
</g>
<defs>
<clipPath id="clip0">
<rect width="188.629" height="24.5657" fill="white" transform="translate(0.371094 0.716797)"/>
</clipPath>
</defs>
</svg>
