<svg width="88" height="88" viewBox="0 0 88 88" xmlns="http://www.w3.org/2000/svg">
  <mask id="mask0" mask-type="alpha" maskUnits="userSpaceOnUse" x="0" y="0" width="88" height="88">
    <path fill-rule="evenodd" clip-rule="evenodd" d="M0 0H88V88H0V0Z" fill="white" />
  </mask>
  <g mask="url(#mask0)">
    <path fill-rule="evenodd" clip-rule="evenodd" d="M11.8583 0C5.30926 0 0 5.309 0 11.8582V76.1414C0 82.6906 5.30904 87.9996 11.8583 87.9996H43.5625L43.6165 56.5533H35.4467C34.385 56.5533 33.5232 55.6948 33.5192 54.6331L33.48 44.4966C33.4759 43.4291 34.3402 42.5616 35.4077 42.5616H43.5627V32.7672C43.5627 21.4009 50.5046 15.2119 60.6441 15.2119H68.9643C70.0287 15.2119 70.8921 16.0749 70.8921 17.1396V25.6867C70.8921 26.751 70.0293 27.6138 68.9654 27.6145L63.8592 27.6168C58.3452 27.6168 57.2774 30.2371 57.2774 34.0825V42.5618H69.394C70.5485 42.5618 71.4443 43.5699 71.3082 44.7164L70.1068 54.8529C69.9918 55.8229 69.1691 56.5537 68.1926 56.5537H57.3315L57.2774 88H76.142C82.691 88 88 82.691 88 76.142V11.8582C87.9998 5.309 82.6908 0 76.1415 0H11.8583Z" />
  </g>
</svg>