<svg width="88" height="88" viewBox="0 0 88 88" xmlns="http://www.w3.org/2000/svg">
  <path d="M44 61.8899C53.8804 61.8899 61.89 53.8802 61.89 43.9999C61.89 34.1195 53.8804 26.1099 44 26.1099C34.1196 26.1099 26.11 34.1195 26.11 43.9999C26.11 53.8802 34.1196 61.8899 44 61.8899Z" />
  <path d="M69.5 21C70.8807 21 72 19.8807 72 18.5C72 17.1193 70.8807 16 69.5 16C68.1193 16 67 17.1193 67 18.5C67 19.8807 68.1193 21 69.5 21Z" />
  <path d="M75.11 0H12.89C5.78 0 0 5.78 0 12.89V75.11C0 82.22 5.78 88 12.89 88H75.11C82.22 88 88 82.22 88 75.11V12.89C88 5.78 82.22 0 75.11 0ZM44 67C31.32 67 21 56.68 21 44C21 31.32 31.32 21 44 21C56.68 21 67 31.32 67 44C67 56.68 56.68 67 44 67ZM69.5 26C65.36 26 62 22.64 62 18.5C62 14.36 65.36 11 69.5 11C73.64 11 77 14.36 77 18.5C77 22.64 73.64 26 69.5 26Z" />
</svg>