<svg width="88" height="88" viewBox="0 0 88 88" xmlns="http://www.w3.org/2000/svg">
  <mask id="mask0" mask-type="alpha" maskUnits="userSpaceOnUse" x="0" y="0" width="88" height="88">
    <path fill-rule="evenodd" clip-rule="evenodd" d="M0 0H88V88H0V0Z" fill="white" />
  </mask>
  <g mask="url(#mask0)">
    <path fill-rule="evenodd" clip-rule="evenodd" d="M78.7646 76.1716C78.7646 77.3476 77.8107 78.3016 76.6346 78.3016H66.053C64.8767 78.3016 63.923 77.3476 63.923 76.1716V56.7821C63.923 53.8894 64.7715 44.1071 56.364 44.1071C49.8426 44.1071 48.5198 50.803 48.2542 53.8079V76.1716C48.2542 77.3476 47.3007 78.3016 46.1242 78.3016H35.8899C34.7137 78.3016 33.76 77.3476 33.76 76.1716V34.461C33.76 33.285 34.7137 32.3312 35.8899 32.3312H46.1242C47.3005 32.3312 48.2542 33.285 48.2542 34.461V38.0676C50.6723 34.4386 54.2661 31.6376 61.9177 31.6376C78.8616 31.6376 78.7646 47.4672 78.7646 56.165V76.1716ZM19.9838 28.4346C14.81 28.4346 10.6157 24.2403 10.6157 19.0665C10.6157 13.8927 14.81 9.69843 19.9838 9.69843C25.1576 9.69843 29.3519 13.8927 29.3519 19.0665C29.3519 24.2403 25.1579 28.4346 19.9838 28.4346ZM27.2309 75.9848C27.2309 77.2645 26.1938 78.3016 24.9144 78.3016H15.0533C13.7738 78.3016 12.7367 77.2645 12.7367 75.9848V34.6478C12.7367 33.3684 13.7738 32.3312 15.0533 32.3312H24.9144C26.1938 32.3312 27.2309 33.3684 27.2309 34.6478V75.9848ZM80.0397 0H7.96031C3.564 0 0 3.564 0 7.96031V80.0395C0 84.436 3.564 88 7.96031 88H80.0395C84.436 88 88 84.436 88 80.0395V7.96031C88 3.564 84.436 0 80.0397 0Z" />
  </g>
</svg>