<svg width="88" height="88" viewBox="0 0 88 88" xmlns="http://www.w3.org/2000/svg">
  <mask id="mask0" mask-type="alpha" maskUnits="userSpaceOnUse" x="0" y="0" width="88" height="88">
    <path fill-rule="evenodd" clip-rule="evenodd" d="M0 0H88V88H0V0Z" fill="white" />
  </mask>
  <g mask="url(#mask0)">
    <path fill-rule="evenodd" clip-rule="evenodd" d="M69.08 32.12C68.64 52.36 55.88 66.44 36.52 67.32C28.6 67.76 22.88 65.12 17.6 62.04C23.32 62.9202 30.8 60.7202 34.7602 57.2C29.04 56.76 25.52 53.68 23.7602 48.84C25.52 49.28 27.28 48.84 28.6 48.84C23.32 47.08 19.8 44 19.3602 36.96C20.68 37.84 22.44 38.28 24.2 38.28C20.24 36.08 17.6 27.72 20.68 22.44C26.4 28.6 33.44 33.88 44.88 34.76C41.8 22.44 58.5203 15.84 65.1203 24.2C68.2002 23.76 70.4002 22.44 72.6002 21.56C71.7203 24.64 69.9604 26.4 67.7603 28.16C69.9604 27.72 72.1603 27.28 73.9203 26.4C73.48 28.6 71.28 30.36 69.08 32.12ZM79.2 0H8.8C3.96017 0 0 3.96 0 8.8V79.2C0 84.04 3.96017 88 8.8 88H79.2C84.04 88 88 84.04 88 79.2V8.8C88 3.96 84.04 0 79.2 0Z" />
  </g>
</svg>